<?xml version="1.0" encoding="utf-8"?>
<svg height="100%" style="fill-rule:evenodd;clip-rule:evenodd;stroke-linejoin:round;stroke-miterlimit:2;" version="1.1" viewBox="0 0 6859 4641" width="100%" xml:space="preserve" xmlns="http://www.w3.org/2000/svg" xmlns:serif="http://www.serif.com/" xmlns:xlink="http://www.w3.org/1999/xlink">
<g id="no-groups-4">
<g id="no-groups-41" serif:id="no-groups-4">
<path d="M3283.52,1466.38c-69.454,9.872 -47.175,93.695 -47.175,93.695l51.17,314.817c2.792,17.192 124.813,0.067 121.592,-19.762l-49.996,-307.596c0,-0 -3.176,-91.448 -75.591,-81.154Z" id="handle3" style="fill:url(#_Radial1);fill-rule:nonzero;"><animate attributeName="d" begin="0s;handle3a4.end" dur="1000ms" fill="freeze" id="handle3a1" to="M4193.55,1388.45c-69.454,9.873 -47.175,93.696 -47.175,93.696l51.171,314.817c2.791,17.192 124.812,0.067 121.591,-19.763l-49.996,-307.595c0,-0 -3.176,-91.448 -75.591,-81.155Z"/><animate attributeName="d" begin="handle3a1.end" dur="1000ms" fill="freeze" id="handle3a2" to="M3594.74,1466.38c-69.453,9.872 -47.175,93.695 -47.175,93.695l51.171,314.817c2.792,17.192 124.813,0.067 121.592,-19.762l-49.996,-307.596c-0,-0 -3.177,-91.448 -75.592,-81.154Z"/><animate attributeName="d" begin="handle3a2.end" dur="1000ms" fill="freeze" id="handle3a3" to="M3844.74,1430.53c-69.454,9.873 -47.175,93.696 -47.175,93.696l51.17,314.817c2.792,17.192 124.813,0.067 121.592,-19.763l-49.996,-307.595c0,-0 -3.176,-91.448 -75.591,-81.155Z"/><animate attributeName="d" begin="handle3a3.end" dur="1000ms" fill="freeze" id="handle3a4" to="M3283.52,1466.38c-69.454,9.872 -47.175,93.695 -47.175,93.695l51.17,314.817c2.792,17.192 124.813,0.067 121.592,-19.762l-49.996,-307.596c0,-0 -3.176,-91.448 -75.591,-81.154Z"/></path>
<path d="M3283.52,1466.38c-69.454,9.872 -47.175,93.695 -47.175,93.695l51.17,314.817c2.792,17.192 124.813,0.067 121.592,-19.762l-49.996,-307.596c0,-0 -3.176,-91.448 -75.591,-81.154Z" style="fill:url(#_Radial2);fill-rule:nonzero;"/>
<path d="M3363.25,1599.48c2.413,-3.085 6.104,-4.915 10.079,-4.942c13.809,-0.079 45.847,8.653 50.762,9.97c12.748,3.469 21.863,11.074 26.391,22.009c11.657,28.178 -11.094,69.267 -13.726,73.858c0,0 -59.751,-12.52 -63.807,-14.1l-9.699,-86.795Z" id="thumb" style="fill:#fdc689;fill-rule:nonzero;"><animate attributeName="d" begin="0s;thumba4.end" dur="1000ms" fill="freeze" id="thumba1" to="M4283.98,1554.63c2.979,-2.544 6.96,-3.604 10.861,-2.84c13.549,2.668 43.211,17.594 47.767,19.863c11.803,5.933 19.225,15.198 21.489,26.815c5.822,29.933 -24.642,65.679 -28.135,69.656c0,-0 -56.07,-24.149 -59.73,-26.503l7.748,-86.991Z"/><animate attributeName="d" begin="thumba1.end" dur="1000ms" fill="freeze" id="thumba2" to="M3679.9,1624.35c2.979,-2.544 6.959,-3.604 10.86,-2.84c13.549,2.668 43.212,17.594 47.767,19.863c11.804,5.933 19.226,15.199 21.489,26.815c5.822,29.933 -24.642,65.679 -28.134,69.656c-0,-0 -56.07,-24.149 -59.731,-26.503l7.749,-86.991Z"/><animate attributeName="d" begin="thumba2.end" dur="1000ms" fill="freeze" id="thumba3" to="M3929.9,1588.5c2.979,-2.544 6.96,-3.604 10.861,-2.84c13.548,2.668 43.211,17.594 47.767,19.863c11.803,5.933 19.225,15.198 21.488,26.815c5.823,29.933 -24.641,65.679 -28.134,69.655c0,0 -56.07,-24.148 -59.73,-26.503l7.748,-86.99Z"/><animate attributeName="d" begin="thumba3.end" dur="1000ms" fill="freeze" id="thumba4" to="M3363.25,1599.48c2.413,-3.085 6.104,-4.915 10.079,-4.942c13.809,-0.079 45.847,8.653 50.762,9.97c12.748,3.469 21.863,11.074 26.391,22.009c11.657,28.178 -11.094,69.267 -13.726,73.858c0,0 -59.751,-12.52 -63.807,-14.1l-9.699,-86.795Z"/></path>
<path d="M3363.25,1599.48c2.413,-3.085 6.104,-4.915 10.079,-4.942c13.809,-0.079 45.847,8.653 50.762,9.97c12.748,3.469 21.863,11.074 26.391,22.009c11.657,28.178 -11.094,69.267 -13.726,73.858c0,0 -59.751,-12.52 -63.807,-14.1l-9.699,-86.795Z" style="fill:#fdc689;fill-rule:nonzero;"/>
<path d="M3269.8,2074.14l-172.149,-118.135c-0.054,-2.839 -1.633,-74.169 33.479,-163.856c7.288,-22.67 26.308,-56.798 50.95,-91.405c40.742,-57.212 52.414,-55.975 57.085,-56.322c14.941,-1.111 12.896,23.206 25.758,30.592c23.979,13.771 94.736,-7.272 98.693,-11.448c2.809,0.549 68.668,13.73 96.428,40.559c8.823,6.789 32.14,34.886 31.207,61.197c-0.483,13.785 -7.501,24.849 -20.29,32c-27.963,15.126 -61.069,0.859 -82.599,-20.14c-17.738,5.299 -39.259,0.95 -49.46,-0.631c-9.447,6.078 -22.187,18.179 -21.604,27.566c0.45,7.119 9.601,14.359 25.779,20.393c-0,-0 -23.234,38.578 -21.875,44.286c0.918,3.838 33.729,53.025 37.421,58.224c16.395,23.083 64.679,5.366 82.851,-1.304c8.741,-3.206 18.211,16.453 12.601,20.524c-4.242,3.08 -36.192,25.3 -36.192,25.3c-44.241,36.52 -62.11,53.176 -70.707,61.191c-10.085,9.397 -77.376,41.409 -77.376,41.409Z" id="hand" style="fill:#fdc689;fill-rule:nonzero;"><animate attributeName="d" begin="0s;handa4.end" dur="1000ms" fill="freeze" id="handa1" to="M4098.04,2001.24l-145.228,-149.999c0.511,-2.794 13.144,-73.014 65.384,-153.931c11.649,-20.768 37.073,-50.434 68.103,-79.452c51.303,-47.971 62.496,-44.438 67.142,-43.849c14.864,1.881 8.025,25.306 19.163,35.102c20.763,18.262 94.291,11.706 98.999,8.4c2.644,1.096 64.568,27.106 86.441,58.918c7.297,8.408 24.563,40.579 18.418,66.18c-3.214,13.413 -12.291,22.861 -26.247,27.327c-30.412,9.265 -60.02,-11.298 -76.947,-36.158c-18.436,1.667 -38.663,-6.874 -48.346,-10.451c-10.468,4.079 -25.359,13.406 -26.653,22.721c-0.974,7.067 6.555,15.981 21.21,25.111c0,-0 -30.439,33.189 -30.242,39.054c0.137,3.943 22.515,58.672 25.099,64.5c11.48,25.882 62.322,18.118 81.457,15.193c9.204,-1.404 14.577,19.745 8.27,22.62c-4.77,2.175 -40.5,17.599 -40.5,17.599c-50.618,26.997 -71.441,39.768 -81.46,45.914c-11.751,7.204 -84.063,25.201 -84.063,25.201Z"/><animate attributeName="d" begin="handa1.end" dur="1000ms" fill="freeze" id="handa2" to="M3493.95,2070.96l-145.228,-149.999c0.511,-2.794 13.144,-73.014 65.384,-153.931c11.649,-20.768 37.074,-50.434 68.104,-79.452c51.303,-47.971 62.496,-44.437 67.142,-43.849c14.864,1.881 8.025,25.306 19.162,35.102c20.764,18.262 94.292,11.706 98.999,8.4c2.644,1.096 64.568,27.106 86.441,58.918c7.297,8.408 24.563,40.579 18.419,66.18c-3.214,13.413 -12.292,22.861 -26.247,27.327c-30.412,9.265 -60.02,-11.298 -76.947,-36.158c-18.437,1.667 -38.664,-6.873 -48.346,-10.451c-10.468,4.079 -25.359,13.406 -26.654,22.722c-0.974,7.066 6.555,15.98 21.211,25.11c-0,0 -30.44,33.189 -30.243,39.054c0.137,3.944 22.516,58.672 25.1,64.501c11.479,25.881 62.322,18.117 81.457,15.192c9.204,-1.404 14.577,19.745 8.27,22.62c-4.77,2.175 -40.5,17.599 -40.5,17.599c-50.618,26.997 -71.441,39.768 -81.46,45.914c-11.752,7.205 -84.064,25.201 -84.064,25.201Z"/><animate attributeName="d" begin="handa2.end" dur="1000ms" fill="freeze" id="handa3" to="M3743.96,2035.11l-145.229,-149.999c0.512,-2.794 13.144,-73.014 65.384,-153.931c11.65,-20.768 37.074,-50.434 68.104,-79.452c51.303,-47.971 62.496,-44.438 67.142,-43.849c14.864,1.881 8.025,25.306 19.163,35.101c20.763,18.263 94.291,11.707 98.999,8.401c2.644,1.096 64.568,27.106 86.441,58.918c7.297,8.408 24.563,40.579 18.418,66.18c-3.214,13.413 -12.291,22.861 -26.247,27.327c-30.412,9.265 -60.02,-11.298 -76.947,-36.158c-18.437,1.667 -38.664,-6.874 -48.346,-10.451c-10.468,4.079 -25.359,13.406 -26.653,22.721c-0.974,7.067 6.555,15.981 21.21,25.111c-0,-0 -30.439,33.189 -30.242,39.053c0.137,3.944 22.515,58.673 25.099,64.501c11.48,25.882 62.322,18.118 81.457,15.193c9.204,-1.404 14.577,19.745 8.27,22.62c-4.77,2.175 -40.5,17.599 -40.5,17.599c-50.618,26.997 -71.441,39.768 -81.46,45.914c-11.752,7.204 -84.063,25.201 -84.063,25.201Z"/><animate attributeName="d" begin="handa3.end" dur="1000ms" fill="freeze" id="handa4" to="M3269.8,2074.14l-172.149,-118.135c-0.054,-2.839 -1.633,-74.169 33.479,-163.856c7.288,-22.67 26.308,-56.798 50.95,-91.405c40.742,-57.212 52.414,-55.975 57.085,-56.322c14.941,-1.111 12.896,23.206 25.758,30.592c23.979,13.771 94.736,-7.272 98.693,-11.448c2.809,0.549 68.668,13.73 96.428,40.559c8.823,6.789 32.14,34.886 31.207,61.197c-0.483,13.785 -7.501,24.849 -20.29,32c-27.963,15.126 -61.069,0.859 -82.599,-20.14c-17.738,5.299 -39.259,0.95 -49.46,-0.631c-9.447,6.078 -22.187,18.179 -21.604,27.566c0.45,7.119 9.601,14.359 25.779,20.393c-0,-0 -23.234,38.578 -21.875,44.286c0.918,3.838 33.729,53.025 37.421,58.224c16.395,23.083 64.679,5.366 82.851,-1.304c8.741,-3.206 18.211,16.453 12.601,20.524c-4.242,3.08 -36.192,25.3 -36.192,25.3c-44.241,36.52 -62.11,53.176 -70.707,61.191c-10.085,9.397 -77.376,41.409 -77.376,41.409Z"/></path>
<clipPath id="_clip3">
<path clip-rule="nonzero" d="M3269.8,2074.14l-172.149,-118.135c-0.054,-2.839 -1.633,-74.169 33.479,-163.856c7.288,-22.67 26.308,-56.798 50.95,-91.405c40.742,-57.212 52.414,-55.975 57.085,-56.322c14.941,-1.111 12.896,23.206 25.758,30.592c23.979,13.771 94.736,-7.272 98.693,-11.448c2.809,0.549 68.668,13.73 96.428,40.559c8.823,6.789 32.14,34.886 31.207,61.197c-0.483,13.785 -7.501,24.849 -20.29,32c-27.963,15.126 -61.069,0.859 -82.599,-20.14c-17.738,5.299 -39.259,0.95 -49.46,-0.631c-9.447,6.078 -22.187,18.179 -21.604,27.566c0.45,7.119 9.601,14.359 25.779,20.393c-0,-0 -23.234,38.578 -21.875,44.286c0.918,3.838 33.729,53.025 37.421,58.224c16.395,23.083 64.679,5.366 82.851,-1.304c8.741,-3.206 18.211,16.453 12.601,20.524c-4.242,3.08 -36.192,25.3 -36.192,25.3c-44.241,36.52 -62.11,53.176 -70.707,61.191c-10.085,9.397 -77.376,41.409 -77.376,41.409Z"/>
</clipPath>
<g clip-path="url(#_clip3)">
<g id="hand-shadow">
<path d="M3016.93,2710.02c-38.376,46.905 213.136,-651.829 346.119,-785.412c23.29,-23.394 48.799,-44.274 79.817,-32.977c69.049,25.15 135.832,97.333 135.568,102.789c-0.662,13.534 -267.487,356.238 -561.504,715.6Z" style="fill:#fcfdff;fill-rule:nonzero;"/>
<path d="M3016.93,2710.02c-38.376,46.905 213.136,-651.829 346.119,-785.412c23.29,-23.394 48.799,-44.274 79.817,-32.977c69.049,25.15 135.832,97.333 135.568,102.789c-0.662,13.534 -267.487,356.238 -561.504,715.6Z" style="fill:#fcfdff;fill-rule:nonzero;"/>
</g>
</g>
<path d="M3269.8,2074.14l-172.149,-118.135c-0.054,-2.839 -1.633,-74.169 33.479,-163.856c7.288,-22.67 26.308,-56.798 50.95,-91.405c40.742,-57.212 52.414,-55.975 57.085,-56.322c14.941,-1.111 12.896,23.206 25.758,30.592c23.979,13.771 94.736,-7.272 98.693,-11.448c2.809,0.549 68.668,13.73 96.428,40.559c8.823,6.789 32.14,34.886 31.207,61.197c-0.483,13.785 -7.501,24.849 -20.29,32c-27.963,15.126 -61.069,0.859 -82.599,-20.14c-17.738,5.299 -39.259,0.95 -49.46,-0.631c-9.447,6.078 -22.187,18.179 -21.604,27.566c0.45,7.119 9.601,14.359 25.779,20.393c-0,-0 -23.234,38.578 -21.875,44.286c0.918,3.838 33.729,53.025 37.421,58.224c16.395,23.083 64.679,5.366 82.851,-1.304c8.741,-3.206 18.211,16.453 12.601,20.524c-4.242,3.08 -36.192,25.3 -36.192,25.3c-44.241,36.52 -62.11,53.176 -70.707,61.191c-10.085,9.397 -77.376,41.409 -77.376,41.409Z" style="fill:#fdc689;fill-rule:nonzero;"/>
<clipPath id="_clip4">
<path clip-rule="nonzero" d="M3269.8,2074.14l-172.149,-118.135c-0.054,-2.839 -1.633,-74.169 33.479,-163.856c7.288,-22.67 26.308,-56.798 50.95,-91.405c40.742,-57.212 52.414,-55.975 57.085,-56.322c14.941,-1.111 12.896,23.206 25.758,30.592c23.979,13.771 94.736,-7.272 98.693,-11.448c2.809,0.549 68.668,13.73 96.428,40.559c8.823,6.789 32.14,34.886 31.207,61.197c-0.483,13.785 -7.501,24.849 -20.29,32c-27.963,15.126 -61.069,0.859 -82.599,-20.14c-17.738,5.299 -39.259,0.95 -49.46,-0.631c-9.447,6.078 -22.187,18.179 -21.604,27.566c0.45,7.119 9.601,14.359 25.779,20.393c-0,-0 -23.234,38.578 -21.875,44.286c0.918,3.838 33.729,53.025 37.421,58.224c16.395,23.083 64.679,5.366 82.851,-1.304c8.741,-3.206 18.211,16.453 12.601,20.524c-4.242,3.08 -36.192,25.3 -36.192,25.3c-44.241,36.52 -62.11,53.176 -70.707,61.191c-10.085,9.397 -77.376,41.409 -77.376,41.409Z"/>
</clipPath>
<g clip-path="url(#_clip4)">
<g id="hand-shadow1" serif:id="hand-shadow">
<path d="M3016.93,2710.02c-38.376,46.905 213.136,-651.829 346.119,-785.412c23.29,-23.394 48.799,-44.274 79.817,-32.977c69.049,25.15 135.832,97.333 135.568,102.789c-0.662,13.534 -267.487,356.238 -561.504,715.6Z" style="fill:#fcfdff;fill-rule:nonzero;"/>
<path d="M3016.93,2710.02c-38.376,46.905 213.136,-651.829 346.119,-785.412c23.29,-23.394 48.799,-44.274 79.817,-32.977c69.049,25.15 135.832,97.333 135.568,102.789c-0.662,13.534 -267.487,356.238 -561.504,715.6Z" style="fill:#fcfdff;fill-rule:nonzero;"/>
</g>
</g>
<path d="M3459.24,1941.14c-12.933,5.003 -82.496,16.734 -87.933,15.209c-28.765,-8.068 -41.621,-24.716 -41.095,-40.943c0.604,-18.719 20.99,-32.149 33.692,-36.221l0.66,-0.188c0.837,-0.205 21.068,-5.103 81.742,-7.838c38.985,-1.739 49.39,11.558 51.191,23.033c3.121,19.817 -20.922,41.989 -38.257,46.948Z" id="pinky" style="fill:#fdc689;fill-rule:nonzero;"><animate attributeName="d" begin="0s;pinkya4.end" dur="1000ms" fill="freeze" id="pinkya1" to="M4310.14,1908.55c-13.669,2.332 -84.176,0 -89.202,-2.575c-26.586,-13.626 -35.876,-32.497 -32.135,-48.296c4.313,-18.225 26.962,-27.334 40.22,-28.8l0.685,-0.053c0.86,-0.035 21.661,-0.813 81.668,8.568c38.553,6.046 46.107,21.146 45.591,32.75c-0.881,20.042 -28.852,36.992 -46.827,38.406Z"/><animate attributeName="d" begin="pinkya1.end" dur="1000ms" fill="freeze" id="pinkya2" to="M3706.06,1978.28c-13.67,2.332 -84.177,0 -89.202,-2.575c-26.586,-13.626 -35.876,-32.497 -32.135,-48.296c4.313,-18.225 26.962,-27.334 40.22,-28.8l0.684,-0.053c0.86,-0.035 21.662,-0.813 81.669,8.568c38.553,6.046 46.106,21.146 45.59,32.75c-0.881,20.042 -28.851,36.992 -46.826,38.406Z"/><animate attributeName="d" begin="pinkya2.end" dur="1000ms" fill="freeze" id="pinkya3" to="M3956.06,1942.42c-13.669,2.332 -84.176,0 -89.202,-2.575c-26.586,-13.626 -35.876,-32.497 -32.135,-48.296c4.313,-18.225 26.962,-27.334 40.22,-28.8l0.685,-0.054c0.86,-0.034 21.661,-0.812 81.668,8.569c38.553,6.046 46.106,21.146 45.591,32.75c-0.881,20.042 -28.852,36.992 -46.827,38.406Z"/><animate attributeName="d" begin="pinkya3.end" dur="1000ms" fill="freeze" id="pinkya4" to="M3459.24,1941.14c-12.933,5.003 -82.496,16.734 -87.933,15.209c-28.765,-8.068 -41.621,-24.716 -41.095,-40.943c0.604,-18.719 20.99,-32.149 33.692,-36.221l0.66,-0.188c0.837,-0.205 21.068,-5.103 81.742,-7.838c38.985,-1.739 49.39,11.558 51.191,23.033c3.121,19.817 -20.922,41.989 -38.257,46.948Z"/></path>
<path d="M3459.24,1941.14c-12.933,5.003 -82.496,16.734 -87.933,15.209c-28.765,-8.068 -41.621,-24.716 -41.095,-40.943c0.604,-18.719 20.99,-32.149 33.692,-36.221l0.66,-0.188c0.837,-0.205 21.068,-5.103 81.742,-7.838c38.985,-1.739 49.39,11.558 51.191,23.033c3.121,19.817 -20.922,41.989 -38.257,46.948Z" style="fill:#fdc689;fill-rule:nonzero;"/>
<path d="M3350,1900.66c-18.839,-0.94 -42.41,-8.544 -49.168,-24.53c-6.885,-16.271 4.296,-33.356 33.234,-50.778c-0,-0 30.234,-3.861 39.731,-4.652c44.866,-3.719 48.531,-4.024 86.102,-32.864c5.995,-4.598 12.85,-5.533 18.806,-2.587c15.96,7.893 16.062,40.225 16.063,40.555c-0.025,13.883 -25.131,45.15 -40.091,62.555c-0.981,2.03 -3.161,3.44 -7.711,3.625c-2.997,-4.144 -92.36,5.871 -96.966,8.676Z" id="middle" style="fill:#fdc689;fill-rule:nonzero;"><animate attributeName="d" begin="0s;middlea4.end" dur="1000ms" fill="freeze" id="middlea1" to="M4211.12,1847.16c-18.276,-4.666 -39.865,-16.805 -43.31,-33.815c-3.514,-17.315 10.841,-31.837 42.664,-43.158c0,-0 30.398,2.226 39.863,3.34c44.71,5.273 48.363,5.703 90.917,-15.092c6.789,-3.315 13.694,-2.868 18.945,1.203c14.073,10.908 7.745,42.615 7.68,42.939c-2.784,13.6 -33.604,39.253 -51.727,53.337c-1.364,1.794 -3.78,2.742 -8.277,2.019c-2.113,-4.657 -91.683,-12.607 -96.755,-10.773Z"/><animate attributeName="d" begin="middlea1.end" dur="1000ms" fill="freeze" id="middlea2" to="M3607.04,1916.88c-18.276,-4.666 -39.866,-16.805 -43.311,-33.815c-3.513,-17.315 10.842,-31.836 42.665,-43.158c-0,0 30.398,2.226 39.863,3.34c44.71,5.273 48.363,5.703 90.917,-15.092c6.789,-3.315 13.693,-2.868 18.945,1.203c14.073,10.908 7.745,42.616 7.68,42.939c-2.785,13.6 -33.605,39.253 -51.727,53.337c-1.364,1.794 -3.781,2.743 -8.278,2.019c-2.112,-4.657 -91.683,-12.607 -96.754,-10.773Z"/><animate attributeName="d" begin="middlea2.end" dur="1000ms" fill="freeze" id="middlea3" to="M3857.04,1881.03c-18.276,-4.666 -39.865,-16.805 -43.31,-33.815c-3.514,-17.315 10.841,-31.837 42.664,-43.158c0,-0 30.398,2.226 39.863,3.34c44.71,5.273 48.363,5.703 90.917,-15.092c6.789,-3.315 13.694,-2.868 18.945,1.203c14.073,10.908 7.745,42.615 7.68,42.938c-2.784,13.601 -33.604,39.254 -51.727,53.338c-1.364,1.794 -3.78,2.742 -8.277,2.019c-2.113,-4.657 -91.684,-12.607 -96.755,-10.773Z"/><animate attributeName="d" begin="middlea3.end" dur="1000ms" fill="freeze" id="middlea4" to="M3350,1900.66c-18.839,-0.94 -42.41,-8.544 -49.168,-24.53c-6.885,-16.271 4.296,-33.356 33.234,-50.778c-0,-0 30.234,-3.861 39.731,-4.652c44.866,-3.719 48.531,-4.024 86.102,-32.864c5.995,-4.598 12.85,-5.533 18.806,-2.587c15.96,7.893 16.062,40.225 16.063,40.555c-0.025,13.883 -25.131,45.15 -40.091,62.555c-0.981,2.03 -3.161,3.44 -7.711,3.625c-2.997,-4.144 -92.36,5.871 -96.966,8.676Z"/></path>
<path d="M3350,1900.66c-18.839,-0.94 -42.41,-8.544 -49.168,-24.53c-6.885,-16.271 4.296,-33.356 33.234,-50.778c-0,-0 30.234,-3.861 39.731,-4.652c44.866,-3.719 48.531,-4.024 86.102,-32.864c5.995,-4.598 12.85,-5.533 18.806,-2.587c15.96,7.893 16.062,40.225 16.063,40.555c-0.025,13.883 -25.131,45.15 -40.091,62.555c-0.981,2.03 -3.161,3.44 -7.711,3.625c-2.997,-4.144 -92.36,5.871 -96.966,8.676Z" style="fill:#fdc689;fill-rule:nonzero;"/>
<path d="M3439.45,1803.11c-18.686,-2.133 -36.665,-14.814 -50.309,-28.12c-18.688,6.564 -40.93,-0.191 -51.296,1.275c-9.448,6.079 -22.187,18.18 -21.604,27.566c0.429,6.787 8.893,14.062 23.689,19.919c13.079,-0.023 24.749,-1.287 33.683,-2.031c34.857,-2.889 45.495,-4.858 65.837,-18.609Z" id="index" style="fill:#fdc689;fill-rule:nonzero;"><animate attributeName="d" begin="0s;indexa4.end" dur="1000ms" fill="freeze" id="indexa1" to="M4318.19,1769.34c-17.889,-5.806 -32.988,-21.807 -43.715,-37.561c-19.619,2.719 -40.075,-8.323 -50.525,-8.947c-10.468,4.079 -25.359,13.406 -26.653,22.721c-0.929,6.737 5.92,15.549 19.256,24.23c12.823,2.578 24.511,3.659 33.415,4.707c34.735,4.097 45.553,4.282 68.222,-5.15Z"/><animate attributeName="d" begin="indexa1.end" dur="1000ms" fill="freeze" id="indexa2" to="M3714.1,1839.06c-17.889,-5.806 -32.989,-21.807 -43.715,-37.561c-19.62,2.719 -40.075,-8.323 -50.525,-8.947c-10.468,4.079 -25.359,13.406 -26.653,22.721c-0.929,6.737 5.92,15.549 19.256,24.23c12.823,2.578 24.511,3.659 33.415,4.707c34.735,4.097 45.552,4.282 68.222,-5.15Z"/><animate attributeName="d" begin="indexa2.end" dur="1000ms" fill="freeze" id="indexa3" to="M3964.1,1803.21c-17.889,-5.806 -32.988,-21.807 -43.715,-37.561c-19.62,2.719 -40.075,-8.323 -50.525,-8.947c-10.468,4.079 -25.359,13.406 -26.653,22.721c-0.929,6.737 5.92,15.549 19.256,24.23c12.823,2.578 24.511,3.659 33.415,4.706c34.735,4.098 45.553,4.283 68.222,-5.149Z"/><animate attributeName="d" begin="indexa3.end" dur="1000ms" fill="freeze" id="indexa4" to="M3439.45,1803.11c-18.686,-2.133 -36.665,-14.814 -50.309,-28.12c-18.688,6.564 -40.93,-0.191 -51.296,1.275c-9.448,6.079 -22.187,18.18 -21.604,27.566c0.429,6.787 8.893,14.062 23.689,19.919c13.079,-0.023 24.749,-1.287 33.683,-2.031c34.857,-2.889 45.495,-4.858 65.837,-18.609Z"/></path>
<path d="M3439.45,1803.11c-18.686,-2.133 -36.665,-14.814 -50.309,-28.12c-18.688,6.564 -40.93,-0.191 -51.296,1.275c-9.448,6.079 -22.187,18.18 -21.604,27.566c0.429,6.787 8.893,14.062 23.689,19.919c13.079,-0.023 24.749,-1.287 33.683,-2.031c34.857,-2.889 45.495,-4.858 65.837,-18.609Z" style="fill:#fdc689;fill-rule:nonzero;"/>
<path d="M1057.33,2717.23c0,0 551.463,-205.959 692.176,-242.755c47.052,-12.304 155.809,22.939 155.809,22.939c195.271,10.709 299.613,-5.42 718.404,99.425c142.011,-226.027 296.536,-471.773 455.182,-645.121c22.287,-24.352 68.106,-28.152 94.024,-7.707c57.695,45.514 93.126,121.067 98.118,123.286c59.952,26.646 -167.048,427.764 -485.623,894.422c-224.507,83.382 -762.347,6.635 -762.347,6.635c19.507,137.455 46.349,1503.49 35.33,1635.99c-104.521,63.088 -747.35,36.217 -907.396,-28.808c11.898,-82.629 -17.31,-995.127 -45.688,-1128.15c-51.2,-240.007 -119.133,-398.475 -137.875,-410.35l89.886,-319.806Z" id="torso" style="fill:#fcfdff;fill-rule:nonzero;"><animate attributeName="d" begin="0s;torsoa4.end" dur="1000ms" fill="freeze" id="torsoa1" to="M1057.33,2717.23c0,0 551.463,-205.959 692.176,-242.755c47.052,-12.304 155.809,22.939 155.809,22.939c195.271,10.709 505.194,-88.332 988.598,-134.023c258.365,-144.206 849.737,-355.049 1017.62,-494.863c25.365,-21.125 68.105,-28.152 94.023,-7.707c57.695,45.514 93.127,121.067 98.118,123.286c59.952,26.646 -468.139,422.685 -910.709,664.451c-209.112,114.233 -1169.89,319.796 -1169.89,319.796c19.507,137.455 46.349,1503.49 35.33,1635.99c-104.521,63.088 -747.35,36.217 -907.396,-28.808c11.898,-82.629 -17.31,-995.127 -45.688,-1128.15c-51.2,-240.007 -119.133,-398.475 -137.875,-410.35l89.886,-319.806Z"/><animate attributeName="d" begin="torsoa1.end" dur="1000ms" fill="freeze" id="torsoa2" to="M1057.33,2717.23c0,0 551.463,-205.959 692.176,-242.755c47.052,-12.304 155.809,22.939 155.809,22.939c195.271,10.709 448.489,5.305 931.893,-40.386c197.868,-207.684 303.082,-343.527 461.728,-516.875c22.287,-24.352 68.106,-28.152 94.023,-7.708c57.696,45.515 93.127,121.068 98.119,123.286c59.952,26.647 -182.381,269.536 -546.155,710.821c-210.41,96.062 -921.85,201.802 -921.85,201.802c19.507,137.455 46.349,1503.49 35.33,1635.99c-104.521,63.088 -747.35,36.217 -907.396,-28.808c11.898,-82.629 -17.31,-995.127 -45.688,-1128.15c-51.2,-240.007 -119.133,-398.475 -137.875,-410.35l89.886,-319.806Z"/><animate attributeName="d" begin="torsoa2.end" dur="1000ms" fill="freeze" id="torsoa3" to="M1057.33,2717.23c0,0 551.463,-205.959 692.176,-242.755c47.052,-12.304 155.809,22.939 155.809,22.939c195.271,10.709 492.385,14.948 975.789,-30.744c225.686,-219.106 504.356,-386.354 663.002,-559.702c22.287,-24.352 68.106,-28.152 94.023,-7.707c57.696,45.514 93.127,121.067 98.119,123.286c59.952,26.646 -279.34,313.55 -658.099,696.272c-209.112,114.234 -1055.08,249.535 -1055.08,249.535c19.507,137.455 46.349,1503.49 35.33,1635.99c-104.521,63.088 -747.35,36.217 -907.396,-28.808c11.898,-82.629 -17.31,-995.127 -45.688,-1128.15c-51.2,-240.007 -119.133,-398.475 -137.875,-410.35l89.886,-319.806Z"/><animate attributeName="d" begin="torsoa3.end" dur="1000ms" fill="freeze" id="torsoa4" to="M1057.33,2717.23c0,0 551.463,-205.959 692.176,-242.755c47.052,-12.304 155.809,22.939 155.809,22.939c195.271,10.709 299.613,-5.42 718.404,99.425c142.011,-226.027 296.536,-471.773 455.182,-645.121c22.287,-24.352 68.106,-28.152 94.024,-7.707c57.695,45.514 93.126,121.067 98.118,123.286c59.952,26.646 -167.048,427.764 -485.623,894.422c-224.507,83.382 -762.347,6.635 -762.347,6.635c19.507,137.455 46.349,1503.49 35.33,1635.99c-104.521,63.088 -747.35,36.217 -907.396,-28.808c11.898,-82.629 -17.31,-995.127 -45.688,-1128.15c-51.2,-240.007 -119.133,-398.475 -137.875,-410.35l89.886,-319.806Z"/></path>
<clipPath id="_clip5">
<path clip-rule="nonzero" d="M1057.33,2717.23c0,0 551.463,-205.959 692.176,-242.755c47.052,-12.304 155.809,22.939 155.809,22.939c195.271,10.709 299.613,-5.42 718.404,99.425c142.011,-226.027 296.536,-471.773 455.182,-645.121c22.287,-24.352 68.106,-28.152 94.024,-7.707c57.695,45.514 93.126,121.067 98.118,123.286c59.952,26.646 -167.048,427.764 -485.623,894.422c-224.507,83.382 -762.347,6.635 -762.347,6.635c19.507,137.455 46.349,1503.49 35.33,1635.99c-104.521,63.088 -747.35,36.217 -907.396,-28.808c11.898,-82.629 -17.31,-995.127 -45.688,-1128.15c-51.2,-240.007 -119.133,-398.475 -137.875,-410.35l89.886,-319.806Z"/>
</clipPath>
<g clip-path="url(#_clip5)">
<path d="M1789.22,2911.71l-83.296,2.901l45.833,1758.22l83.296,-2.902l-45.833,-1758.22Z" id="strap2" style="fill-rule:nonzero;"/>
<path d="M1523.24,2864.76l8.333,1800.06l95.675,13.496l-8.333,-1800.06l-95.675,-13.496Z" id="strap1" style="fill-rule:nonzero;"/>
<g id="arm-shadow">
<path d="M916.122,2532.04c-63.991,20.112 -140.342,268.613 -104.8,402.108c71.241,267.592 1331.08,210.35 1434.51,192.155c127.779,-97.93 369.217,-728.7 380.167,-760.105c3.716,-10.654 -118.242,-24.15 -151.034,-66.02c-31.037,-39.634 -350.341,501.629 -387.362,513.04c-609.045,-72.92 -1023.46,-327.702 -1171.48,-281.178Z" style="fill:#fcfdff;fill-rule:nonzero;"/>
<path d="M916.122,2532.04c-63.991,20.112 -140.342,268.613 -104.8,402.108c71.241,267.592 1331.08,210.35 1434.51,192.155c127.779,-97.93 369.217,-728.7 380.167,-760.105c3.716,-10.654 -118.242,-24.15 -151.034,-66.02c-31.037,-39.634 -350.341,501.629 -387.362,513.04c-609.045,-72.92 -1023.46,-327.702 -1171.48,-281.178Z" style="fill:#fcfdff;fill-rule:nonzero;"/>
</g>
<g id="button-shadow">
<path d="M1631.11,2659.09c90.429,3.174 156.499,215.091 147.448,472.94c-9.05,257.848 -89.815,464.612 -180.245,461.438c-90.429,-3.174 -156.499,-215.092 -147.448,-472.94c9.05,-257.849 89.815,-464.612 180.245,-461.438Z" style="fill:#828282;"/>
<path d="M1631.11,2659.09c90.429,3.174 156.499,215.091 147.448,472.94c-9.05,257.848 -89.815,464.612 -180.245,461.438c-90.429,-3.174 -156.499,-215.092 -147.448,-472.94c9.05,-257.849 89.815,-464.612 180.245,-461.438Z" style="fill:#828282;"/>
</g>
</g>
<path d="M1057.33,2717.23c0,0 551.463,-205.959 692.176,-242.755c47.052,-12.304 155.809,22.939 155.809,22.939c195.271,10.709 299.613,-5.42 718.404,99.425c142.011,-226.027 296.536,-471.773 455.182,-645.121c22.287,-24.352 68.106,-28.152 94.024,-7.707c57.695,45.514 93.126,121.067 98.118,123.286c59.952,26.646 -167.048,427.764 -485.623,894.422c-224.507,83.382 -762.347,6.635 -762.347,6.635c19.507,137.455 46.349,1503.49 35.33,1635.99c-104.521,63.088 -747.35,36.217 -907.396,-28.808c11.898,-82.629 -17.31,-995.127 -45.688,-1128.15c-51.2,-240.007 -119.133,-398.475 -137.875,-410.35l89.886,-319.806Z" style="fill:#fcfdff;fill-rule:nonzero;"/>
<clipPath id="_clip6">
<path clip-rule="nonzero" d="M1057.33,2717.23c0,0 551.463,-205.959 692.176,-242.755c47.052,-12.304 155.809,22.939 155.809,22.939c195.271,10.709 299.613,-5.42 718.404,99.425c142.011,-226.027 296.536,-471.773 455.182,-645.121c22.287,-24.352 68.106,-28.152 94.024,-7.707c57.695,45.514 93.126,121.067 98.118,123.286c59.952,26.646 -167.048,427.764 -485.623,894.422c-224.507,83.382 -762.347,6.635 -762.347,6.635c19.507,137.455 46.349,1503.49 35.33,1635.99c-104.521,63.088 -747.35,36.217 -907.396,-28.808c11.898,-82.629 -17.31,-995.127 -45.688,-1128.15c-51.2,-240.007 -119.133,-398.475 -137.875,-410.35l89.886,-319.806Z"/>
</clipPath>
<g clip-path="url(#_clip6)">
<path d="M1789.22,2911.71l-83.296,2.901l45.833,1758.22l83.296,-2.902l-45.833,-1758.22Z" id="strap21" serif:id="strap2" style="fill-rule:nonzero;"/>
<path d="M1523.24,2864.76l8.333,1800.06l95.675,13.496l-8.333,-1800.06l-95.675,-13.496Z" id="strap11" serif:id="strap1" style="fill-rule:nonzero;"/>
<g id="arm-shadow1" serif:id="arm-shadow">
<path d="M916.122,2532.04c-63.991,20.112 -140.342,268.613 -104.8,402.108c71.241,267.592 1331.08,210.35 1434.51,192.155c127.779,-97.93 369.217,-728.7 380.167,-760.105c3.716,-10.654 -118.242,-24.15 -151.034,-66.02c-31.037,-39.634 -350.341,501.629 -387.362,513.04c-609.045,-72.92 -1023.46,-327.702 -1171.48,-281.178Z" style="fill:#fcfdff;fill-rule:nonzero;"/>
<path d="M916.122,2532.04c-63.991,20.112 -140.342,268.613 -104.8,402.108c71.241,267.592 1331.08,210.35 1434.51,192.155c127.779,-97.93 369.217,-728.7 380.167,-760.105c3.716,-10.654 -118.242,-24.15 -151.034,-66.02c-31.037,-39.634 -350.341,501.629 -387.362,513.04c-609.045,-72.92 -1023.46,-327.702 -1171.48,-281.178Z" style="fill:#fcfdff;fill-rule:nonzero;"/>
</g>
<g id="button-shadow1" serif:id="button-shadow">
<path d="M1631.11,2659.09c90.429,3.174 156.499,215.091 147.448,472.94c-9.05,257.848 -89.815,464.612 -180.245,461.438c-90.429,-3.174 -156.499,-215.092 -147.448,-472.94c9.05,-257.849 89.815,-464.612 180.245,-461.438Z" style="fill:#828282;"/>
<path d="M1631.11,2659.09c90.429,3.174 156.499,215.091 147.448,472.94c-9.05,257.848 -89.815,464.612 -180.245,461.438c-90.429,-3.174 -156.499,-215.092 -147.448,-472.94c9.05,-257.849 89.815,-464.612 180.245,-461.438Z" style="fill:#828282;"/>
</g>
</g>
<path d="M1628.61,2651.54c91.943,3.245 159.175,215.951 150.042,474.699c-9.132,258.749 -91.193,466.185 -183.136,462.94c-91.943,-3.245 -159.175,-215.951 -150.042,-474.699c9.132,-258.749 91.193,-466.185 183.136,-462.94Z" style="fill:url(#_Linear7);"/>
<path d="M1640.05,2658.7c91.943,3.245 159.171,216.047 150.034,474.914c-9.136,258.867 -91.2,466.4 -183.143,463.155c-91.944,-3.245 -159.172,-216.047 -150.035,-474.914c9.136,-258.868 91.2,-466.4 183.144,-463.155Z" style="fill:url(#_Radial8);"/>
<path d="M1501.46,3189.31l-0.001,-0.001c2.008,-1.341 4.425,-1.341 7.05,0.267l10.25,6.375l-0.032,-0.02c-2.617,-1.621 -5.018,-1.579 -7.035,-0.234l-0.002,0.001l-14.607,9.765l-0.341,0.209c-1.704,1.15 -5.312,8.821 3.188,157.183c5.516,96.438 8.054,110.884 9.933,112.067l-10.229,-6.35c-1.9,-1.175 -4.434,-15.621 -9.954,-112.096c-8.48,-148.367 -4.892,-155.996 -3.167,-157.154l0.342,-0.204l-0.003,-0.004l14.608,-9.804Zm85.762,36.949c-2.404,-1.483 -4.961,-1.294 -7.559,0.421c-11.513,7.742 -20.817,54.117 -16.354,132.084c2.404,41.975 8.875,78.537 19.487,85.112l-10.246,-6.342c-10.616,-6.612 -17.087,-43.175 -19.475,-85.158c-4.458,-77.967 4.842,-124.342 16.359,-132.042c2.604,-1.766 5.208,-1.912 7.633,-0.416l10.155,6.341c0.025,0.015 0.049,0.031 0.074,0.046l-0.074,-0.046Zm15.483,-8.758c-0,0 8.362,-5.575 8.666,-5.396l10.25,6.379c-0.2,-0.12 -0.417,-0.104 -0.66,0c-0.283,0.184 -8.027,5.367 -8.027,5.367c-2.534,1.696 -3.059,2.392 -2.363,14.321c3.467,60.558 13.5,73.925 14.171,85.829c0.417,7.121 -7.8,44.4 -4.708,98.533c0.386,6.631 0.691,8.938 1.34,9.367l0.026,0.017c-0.007,-0.005 -0.015,-0.01 -0.023,-0.015l-0.003,-0.002l-10.224,-6.325c-0.666,-0.417 -0.975,-2.7 -1.345,-9.425c-3.109,-54.092 5.104,-91.408 4.708,-98.5c-0.692,-11.929 -10.725,-25.262 -14.192,-85.858c-0.675,-11.9 -0.15,-12.592 2.384,-14.292Zm-96.55,9.929c-0,0 23.391,-22.129 30.941,109.496c3.326,57.987 -3.356,87.45 -7.985,90.563l-11.323,-13.571c4.633,-3.117 12.379,-25.346 9.058,-83.371c-3.966,-69.488 -14.387,-99.225 -20.691,-103.117Zm142.041,186.488l-10.25,-6.338c-0.546,-0.354 -0.904,-1.829 -1.137,-5.829c-2.254,-39.367 -9.279,-63.029 -12.092,-64.787l10.233,6.383c2.825,1.717 9.838,25.421 12.088,64.792c0.233,3.962 0.608,5.429 1.158,5.779Zm-73.069,-21.772c1.68,1.031 3.373,1.065 4.765,0.151c14.083,-9.45 11.779,-49.7 12.996,-50.513l10.25,6.38c-1.217,0.812 1.087,41.058 -13,50.475c-1.404,0.958 -3.125,0.875 -4.842,-0.184l-10.169,-6.309c-0.02,-0.012 -0.04,-0.024 -0.06,-0.037l0.06,0.037Zm149.231,-219.868c0.021,0.013 -4.968,-0.603 -7.574,1.119c-11.509,7.737 -20.813,54.112 -16.354,132.079c2.404,41.975 8.879,78.538 19.491,85.113l-10.25,-6.342c-10.612,-6.613 -17.066,-43.183 -19.471,-85.158c-4.462,-77.967 4.842,-124.342 16.359,-132.042c2.604,-1.763 5.208,-1.913 7.633,-0.417l10.166,5.648Zm15.901,122.601c-1.192,0.882 1.094,41.061 -12.996,50.472c-1.404,0.958 -3.125,0.879 -4.842,-0.183l-10.229,-6.346l0.053,0.033c1.683,1.034 3.378,1.07 4.772,0.154c14.1,-9.458 11.796,-49.708 12.996,-50.512l0.196,-0l10.25,6.379l-0.196,0l-0.004,0.003Zm-176.014,23.925c0.179,0.11 0.351,0.11 0.551,-0.04c1.034,-0.663 15.942,-24.063 15.004,-40.48c-0.679,-11.675 -3.27,-18.025 -5.916,-19.662l10.246,6.342c2.629,1.645 5.241,7.987 5.904,19.704c0.95,16.375 -13.954,39.775 -14.988,40.475c-0.204,0.116 -0.4,0.154 -0.562,0.033l-10.25,-6.379l0.011,0.007Zm64.151,-118.53l4.311,-2.878l10.229,6.388l-4.291,2.866l-0.003,0.001c-3.672,2.434 -3.009,1.997 -2.853,16.995l0,0c1.608,42.059 -1.276,59.018 -2.476,59.822c-0.183,0.146 -0.383,0.112 -0.583,-0l-10.23,-6.384l0.089,0.056c0.169,0.088 0.333,0.075 0.478,-0.014c1.198,-0.803 4.097,-17.623 2.501,-59.567l-0.005,-0.004c-0.171,-15.25 -0.846,-14.804 2.829,-17.283l0.004,0.002Zm72.974,65.243c0.179,0.109 0.351,0.11 0.551,-0.041c1.034,-0.662 15.942,-24.062 15.004,-40.479c-0.679,-11.675 -3.27,-18.025 -5.916,-19.663l10.246,6.342c2.629,1.646 5.237,7.988 5.9,19.708c0.954,16.371 -13.955,39.771 -14.984,40.471c-0.208,0.117 -0.4,0.154 -0.562,0.034l-10.25,-6.38l0.011,0.008Zm-66.22,-68.995l10.246,6.342c-0.541,-0.313 -1.221,0.062 -2.05,0.608c0,-0 -0.26,0.393 -0.408,0.308c-1.773,-1.012 -10.229,-6.383 -10.229,-6.383l0.412,-0.275c0.825,-0.546 1.484,-0.95 2.029,-0.6Zm8.338,-480.008l-0,-0c0.525,-0.355 1.275,-0.871 1.962,-0.425l10.25,6.341c-0.687,-0.408 -1.458,0.079 -1.962,0.425l-6.544,-4.049l6.541,4.049l-8.25,5.533l-10.23,-6.383l8.233,-5.491Z" style="fill-rule:nonzero;"/>
<path d="M1499.83,3203.42c3.192,-2.634 9.417,-6.366 12.626,-8.157c3.785,-2.112 7.659,1.21 12.168,5.719c19.388,19.388 40.634,174.915 19.601,242.581c-0.958,3.081 -4.304,11.559 -12.192,16.911c-6.418,4.354 -18.941,12.715 -20.923,13.985c-0.476,0.305 -1.013,0.999 -1.567,0.057c-6.202,-10.54 -19.56,-237.093 -13.912,-266.624c0.51,-2.663 1.467,-2.218 4.199,-4.472Zm96.282,38.511c-7.028,-24.613 -20.184,-22.864 -27.48,7.459c-10.601,44.062 -10.294,135.031 4.449,177.885c8.894,25.854 18.508,22.713 26.536,2.671c9.997,-24.956 5.951,-81.757 3.634,-81.757c-2.039,0 0.977,34.625 -9.856,47.242c-10.833,12.616 -18.626,-12.114 -14.359,-28.996c4.267,-16.882 11.73,-26.056 17.414,-43.077c5.684,-17.021 5.528,-60.881 -0.338,-81.427Zm14.218,-12.598c-1.18,30.155 7.012,69.666 13.369,88.084c0.794,2.3 1.221,8.771 0.141,16.302c-4.599,32.092 -5.511,66.754 -3.453,93.293c0.227,2.925 0.054,6.197 2.371,4.387c2.318,-1.81 6.282,-4.245 7.694,-5.36c1.097,-0.866 1.523,-3.66 1.348,-6.516c-0.102,-1.659 -2.813,-57.471 1.427,-72.727c0.585,-2.107 1.494,-5.897 3.622,-0.32c6.545,17.154 10.001,49.451 10.342,64.525c0.066,2.914 1.327,3.431 2.312,2.571c1.094,-0.955 7.755,-5.039 8.861,-6.152c1.105,-1.113 0.969,-2.491 1.243,-3.315c0.274,-0.824 -1.602,-58.617 -12.319,-84.123c-7.63,-18.158 -5.291,-17.28 -2.936,-34.101c2.355,-16.821 4.784,-52.295 2.462,-78.268c-0.507,-5.676 -1.797,-5.061 -3.29,-4.318c-1.246,0.621 -5.503,3.543 -6.155,4.195c-1.882,1.882 -1.392,2.111 -1.668,3.982c-0.437,2.963 1.489,50.019 -1.131,67.8c-0.501,3.4 -1.462,6.54 -3.311,1.767c-5.673,-14.653 -8.654,-55.462 -8.654,-58.984c-0,-0.754 -0.526,-4.506 -1.696,-3.574c-1.268,1.01 -7.454,4.85 -8.6,5.782c-1.147,0.933 -1.82,1.02 -1.979,5.07Zm-100.97,32.954c-0.09,-15.671 1.535,-44.329 13.782,-18.187c12.246,26.142 18.944,131.043 11.411,160.67c-7.12,27.999 -12.813,12.336 -14.301,6.694c-3.769,-14.295 -10.522,-84.774 -10.892,-149.177Zm156.653,-118.407c-1.331,1.798 -3.259,5.586 -4.236,8.45c-1.182,3.464 -2.402,5.482 -2.402,14.781c0,5.623 0.52,16.49 -0.418,22.803c-0.337,2.273 -1.008,4.576 -2.317,4.273c-0.982,-0.228 -0.852,-0.977 -1.884,-0.425c-0.93,0.497 -1.52,0.817 -2.378,2.259c-3.462,5.816 -1.432,33.41 -0.588,37.046c0.53,2.285 1.406,0.917 1.719,0.353c0.313,-0.564 2.468,-7.601 5.154,-3.429c2.569,3.988 4.09,59.968 6.912,107.867c0.899,15.252 4.14,43.859 6.112,61.209c0.291,2.562 1.775,13.893 3.707,11.001c6.72,-10.062 10.093,-22.404 11.163,-25.566c0.427,-1.265 0.671,-2.785 0.397,-3.744c-2.579,-9.033 -5.856,-34.497 -6.59,-42.571c-3.067,-33.727 -7.786,-97.447 -6.542,-107.045c0.69,-5.322 1.077,-7.14 1.806,-8.578c1.028,-2.026 2.212,-2.279 3.123,-2.094c1.155,0.234 2.18,0.935 2.453,1.069c0.322,0.159 0.769,0.32 0.946,0.287c0.177,-0.033 0.431,-0.13 0.697,-0.721c1.752,-3.881 0.307,-24.693 -0.846,-31.378c-0.578,-3.356 -1.351,-4.469 -2.199,-5.028c-0.847,-0.559 -1.953,-0.246 -3.38,1.521c-0.673,0.835 -1.107,1.333 -2.029,1.543c-0.83,0.189 -1.302,-1.471 -1.661,-3.412c-0.527,-2.857 -0.962,-6.517 -0.477,-12.047c0.414,-4.724 0.975,-23.311 0.941,-25.357c-0.034,-2.046 -0.308,-7.727 -0.669,-8.578c-0.361,-0.851 -0.302,-2.026 -1.815,-0.613c-2.444,2.281 -3.367,4.326 -4.699,6.124Zm67.23,44.092c-7.028,-24.612 -20.351,-21.669 -27.36,7.46c-10.601,44.062 -10.807,135.201 3.936,178.055c8.398,24.412 18.901,22.543 26.929,2.5c9.997,-24.955 5.951,-81.757 3.634,-81.757c-2.039,0 0.977,34.625 -9.856,47.242c-10.833,12.616 -18.626,-12.114 -14.359,-28.996c4.267,-16.882 11.73,-26.055 17.414,-43.077c5.684,-17.021 5.529,-60.881 -0.338,-81.427Zm34.273,-43.187c-2.65,1.029 -4.679,7.3 -6.446,13.129c-1.746,6.158 -3.108,12.171 -4.575,12.742c-1.962,0.762 -2.525,-5.555 -3.029,-10.5c-0.275,-3.738 -0.975,-4.43 -1.8,-4.255c-0.088,0.017 -9.942,4.05 -9.942,4.05c-2.276,2.505 4.973,210.726 13.829,214.18c0.163,0.063 9.942,-3.992 9.942,-3.992c1.083,-0.421 3.238,-1.258 3.021,-6.654c-0.154,-2.688 -7.079,-63.029 -9.208,-99.621c-0.009,-0.158 -0.017,-0.317 -0.03,-0.479c-1.17,-20.346 -3.12,-65.159 5.046,-68.334c6.784,-2.633 6.7,20.375 7.879,19.917c2.955,-1.15 7.717,-17.417 6.35,-40.875c-1.054,-18.133 -6.025,-31.254 -11.037,-29.308Zm-191.621,179.346c12.668,-20.405 14.752,-32.778 13.849,-43.191c-0.5,-5.76 -2.25,-11.062 -4.014,-14.291c-1.235,-2.261 -4.846,-3.641 -7.738,2.925c-3.961,8.994 -6.782,43.589 -4.51,53.151c0.319,1.343 0.797,4.007 2.413,1.406Zm137.131,-53.959c12.668,-20.404 14.505,-32.577 13.601,-42.989c-0.543,-6.253 -2.519,-10.624 -4.284,-13.853c-1.51,-2.765 -4.328,-4.281 -7.22,2.285c-3.961,8.994 -6.782,43.59 -4.51,53.152c0.319,1.342 0.798,4.007 2.413,1.405Z" id="Dexter" style="fill:#1f1b1c;"/>
<path d="M2323.53,957.178c-0,0 -15.225,27.271 -12.95,43.708l74.216,536.413l110.263,-11.5l-74.733,-540.096c-2.325,-16.8 -14.209,-29.025 -27.592,-37.454l-0,-0.029c-24.2,3.566 -45.85,5.35 -69.204,8.958Z" id="handle2" style="fill:url(#_Radial9);fill-rule:nonzero;"/>
<path d="M2323.53,957.178c-0,0 -15.225,27.271 -12.95,43.708l74.216,536.413l110.263,-11.5l-74.733,-540.096c-2.325,-16.8 -14.209,-29.025 -27.592,-37.454l-0,-0.029c-24.2,3.566 -45.85,5.35 -69.204,8.958Z" style="fill:url(#_Radial10);fill-rule:nonzero;"/>
<path d="M2783.87,1516.64c-70.691,4.37 -53.02,90.525 -53.02,90.525l31.116,317.425c1.542,15.77 14.292,69.216 25.238,79.141l85.454,-7.746c12.075,-12.558 13.733,-64.82 11.908,-83.412l-30.4,-310.146c0,0 6.779,-90.553 -70.296,-85.787Z" id="handle1" style="fill:url(#_Radial11);fill-rule:nonzero;"/>
<path d="M2783.87,1516.64c-70.691,4.37 -53.02,90.525 -53.02,90.525l31.116,317.425c1.542,15.77 14.292,69.216 25.238,79.141l85.454,-7.746c12.075,-12.558 13.733,-64.82 11.908,-83.412l-30.4,-310.146c0,0 6.779,-90.553 -70.296,-85.787Z" style="fill:url(#_Radial12);fill-rule:nonzero;"/>
<path d="M4520.84,0.486c-23.469,6.567 -33.771,58.55 -33.771,58.55c-107.025,573.459 -2460.35,714.709 -2798.9,773.33c-537.992,93.166 -447.612,909.229 65.871,875.141c185.679,-12.325 979.017,-79.631 979.017,-79.631c-0,-0 -14.344,-104.849 50.82,-111.235c65.164,-6.387 71.763,100.733 71.763,100.733c220.525,-30.885 383.978,-46.897 383.978,-46.897c-7.646,-46.501 9.732,-99.396 43.169,-104.83c33.438,-5.437 68.168,33.588 74.678,88.301c494.964,-51.546 2720.93,-268.922 2965.78,-298.826c363.217,-44.362 601.067,328.763 109.121,377.417c-419.854,41.529 -3977.44,401.302 -4092.37,411.706l6.459,101.831c0,-0 3324.72,-316.237 4150.34,-386.6c673.93,-132.462 268.75,-706.75 -105.587,-634.912c-291.55,31.654 -4353.43,439.914 -4520.11,430.397c-573.14,-32.721 -365.372,-423.426 -90.792,-511.82c86.976,-28 669.863,-96.155 694.175,-98.83c685.163,-75.316 1788.48,-168.387 2127.44,237.771c24.904,29.846 73.358,16.659 78.658,-21.85c46.142,-335.116 -65.85,-927.987 -136.879,-1143.18c-3.667,-11.113 -13.617,-19.147 -22.854,-16.563Z" id="trombone" style="fill:url(#_Radial13);fill-rule:nonzero;"><animate attributeName="d" begin="0s;trombonea4.end" dur="1000ms" fill="freeze" id="trombonea1" to="M4520.84,0.486c-23.469,6.567 -33.771,58.55 -33.771,58.55c-107.025,573.459 -2460.35,714.709 -2798.9,773.33c-537.992,93.166 -447.612,909.229 65.871,875.141c185.679,-12.325 979.017,-79.631 979.017,-79.631c-0,-0 -14.344,-104.849 50.82,-111.235c65.164,-6.387 71.763,100.733 71.763,100.733c220.525,-19.258 1289.13,-144.555 1289.13,-144.555c-7.646,-46.501 15.458,-77.667 48.895,-83.1c33.438,-5.438 67.598,17.3 74.109,72.012c494.963,-43.573 2721.5,-252.633 2966.35,-282.537c363.216,-44.363 601.066,328.762 109.12,377.417c-419.854,41.529 -4888.32,477.23 -5003.25,487.634l6.459,101.831c0,-0 4235.6,-392.165 5061.22,-462.528c673.929,-132.462 268.75,-706.75 -105.588,-634.912c-291.55,31.654 -5264.31,515.842 -5430.99,506.325c-573.14,-32.721 -365.372,-423.426 -90.792,-511.82c86.976,-28 669.863,-96.155 694.175,-98.83c685.163,-75.316 1788.48,-168.387 2127.44,237.771c24.904,29.846 73.358,16.659 78.658,-21.85c46.142,-335.116 -65.85,-927.987 -136.879,-1143.18c-3.667,-11.113 -13.617,-19.147 -22.854,-16.563Z"/><animate attributeName="d" begin="trombonea1.end" dur="1000ms" fill="freeze" id="trombonea2" to="M4520.84,0.486c-23.469,6.567 -33.771,58.55 -33.771,58.55c-107.025,573.459 -2460.35,714.709 -2798.9,773.33c-537.992,93.166 -447.612,909.229 65.871,875.141c185.679,-12.325 979.017,-79.631 979.017,-79.631c-0,-0 -14.344,-104.849 50.82,-111.235c65.164,-6.387 71.763,100.733 71.763,100.733c220.525,-19.258 689.477,-68.627 689.477,-68.627c-7.646,-46.5 15.459,-77.666 48.896,-83.1c33.438,-5.437 67.598,17.3 74.108,72.013c494.964,-43.573 2721.5,-252.634 2966.35,-282.538c363.217,-44.362 601.067,328.763 109.121,377.417c-419.854,41.529 -4288.66,401.302 -4403.6,411.706l6.459,101.831c0,-0 3635.94,-316.237 4461.57,-386.6c673.929,-132.462 268.75,-706.75 -105.587,-634.912c-291.55,31.654 -4664.65,439.914 -4831.34,430.397c-573.14,-32.721 -365.372,-423.426 -90.792,-511.82c86.976,-28 669.863,-96.155 694.175,-98.83c685.163,-75.316 1788.48,-168.387 2127.44,237.771c24.904,29.846 73.358,16.659 78.658,-21.85c46.142,-335.116 -65.85,-927.987 -136.879,-1143.18c-3.667,-11.113 -13.617,-19.147 -22.854,-16.563Z"/><animate attributeName="d" begin="trombonea2.end" dur="1000ms" fill="freeze" id="trombonea3" to="M4520.84,0.486c-23.469,6.567 -33.771,58.55 -33.771,58.55c-107.025,573.459 -2460.35,714.709 -2798.9,773.33c-537.992,93.166 -447.612,909.229 65.871,875.141c185.679,-12.325 979.017,-79.631 979.017,-79.631c-0,-0 -14.344,-104.849 50.82,-111.235c65.164,-6.387 71.763,100.733 71.763,100.733c220.525,-19.258 939.478,-104.479 939.478,-104.479c-7.646,-46.5 15.458,-77.667 48.895,-83.1c33.438,-5.437 67.598,17.3 74.109,72.013c494.963,-43.573 2721.5,-252.634 2966.35,-282.538c363.216,-44.362 601.066,328.763 109.12,377.417c-419.854,41.529 -4538.66,437.154 -4653.6,447.558l6.459,101.831c0,-0 3885.94,-352.089 4711.57,-422.452c673.929,-132.462 268.75,-706.75 -105.588,-634.912c-291.55,31.654 -4914.65,475.766 -5081.34,466.249c-573.14,-32.721 -365.372,-423.426 -90.792,-511.82c86.976,-28 669.863,-96.155 694.175,-98.83c685.163,-75.316 1788.48,-168.387 2127.44,237.771c24.904,29.846 73.358,16.659 78.658,-21.85c46.142,-335.116 -65.85,-927.987 -136.879,-1143.18c-3.667,-11.113 -13.617,-19.147 -22.854,-16.563Z"/><animate attributeName="d" begin="trombonea3.end" dur="1000ms" fill="freeze" id="trombonea4" to="M4520.84,0.486c-23.469,6.567 -33.771,58.55 -33.771,58.55c-107.025,573.459 -2460.35,714.709 -2798.9,773.33c-537.992,93.166 -447.612,909.229 65.871,875.141c185.679,-12.325 979.017,-79.631 979.017,-79.631c-0,-0 -14.344,-104.849 50.82,-111.235c65.164,-6.387 71.763,100.733 71.763,100.733c220.525,-30.885 383.978,-46.897 383.978,-46.897c-7.646,-46.501 9.732,-99.396 43.169,-104.83c33.438,-5.437 68.168,33.588 74.678,88.301c494.964,-51.546 2720.93,-268.922 2965.78,-298.826c363.217,-44.362 601.067,328.763 109.121,377.417c-419.854,41.529 -3977.44,401.302 -4092.37,411.706l6.459,101.831c0,-0 3324.72,-316.237 4150.34,-386.6c673.93,-132.462 268.75,-706.75 -105.587,-634.912c-291.55,31.654 -4353.43,439.914 -4520.11,430.397c-573.14,-32.721 -365.372,-423.426 -90.792,-511.82c86.976,-28 669.863,-96.155 694.175,-98.83c685.163,-75.316 1788.48,-168.387 2127.44,237.771c24.904,29.846 73.358,16.659 78.658,-21.85c46.142,-335.116 -65.85,-927.987 -136.879,-1143.18c-3.667,-11.113 -13.617,-19.147 -22.854,-16.563Z"/></path>
<path d="M4520.84,0.486c-23.469,6.567 -33.771,58.55 -33.771,58.55c-107.025,573.459 -2460.35,714.709 -2798.9,773.33c-537.992,93.166 -447.612,909.229 65.871,875.141c185.679,-12.325 979.017,-79.631 979.017,-79.631c-0,-0 -14.344,-104.849 50.82,-111.235c65.164,-6.387 71.763,100.733 71.763,100.733c220.525,-30.885 383.978,-46.897 383.978,-46.897c-7.646,-46.501 9.732,-99.396 43.169,-104.83c33.438,-5.437 68.168,33.588 74.678,88.301c494.964,-51.546 2720.93,-268.922 2965.78,-298.826c363.217,-44.362 601.067,328.763 109.121,377.417c-419.854,41.529 -3977.44,401.302 -4092.37,411.706l6.459,101.831c0,-0 3324.72,-316.237 4150.34,-386.6c673.93,-132.462 268.75,-706.75 -105.587,-634.912c-291.55,31.654 -4353.43,439.914 -4520.11,430.397c-573.14,-32.721 -365.372,-423.426 -90.792,-511.82c86.976,-28 669.863,-96.155 694.175,-98.83c685.163,-75.316 1788.48,-168.387 2127.44,237.771c24.904,29.846 73.358,16.659 78.658,-21.85c46.142,-335.116 -65.85,-927.987 -136.879,-1143.18c-3.667,-11.113 -13.617,-19.147 -22.854,-16.563Z" style="fill:url(#_Radial14);fill-rule:nonzero;"/>
<path d="M2064.83,624.595c37.271,-57.454 212.237,115.496 216.666,87.5c-123.891,-297.463 -289.55,-268.409 -404.166,-266.667c-40.121,-133.608 305.208,-270.067 304.166,-275c-1125.72,-289.371 -1847.51,260.675 -1762.5,670.833c-248.55,-163.754 -497.054,756.509 -395.833,508.334c86.838,-161.054 160.883,-228.696 205.646,-249.684c3.854,-5.7 7.546,-7.466 11.021,-4.483c-3.438,1.15 -7.129,2.658 -11.021,4.483c-42.958,63.609 -105.646,620.517 -105.646,620.517c0,0 107.279,-258 139.446,-339.121c2.208,-8.396 8.512,-21.471 -0,0c-25.846,98.175 -60.308,452.746 -18.613,489.121c0.863,4.425 90.755,-179.279 95.834,-279.167c-0.846,-1.854 70.833,41.667 70.833,41.667l158.333,791.667l-33.333,-358.334l83.333,333.334l-4.166,-229.167l87.5,291.667l-29.167,-758.334c126.496,-321.875 -85.758,-435.808 -58.333,-591.666c486.166,-403.221 1409.77,-339.404 1675,-79.167c11.65,-183.667 -278.434,-236.554 -275,-241.667c99.283,-53.483 309.262,64.146 304.166,66.667c75.538,-61.554 -249.562,-227.687 -254.166,-233.333" id="hair" style="fill:#ff0;fill-rule:nonzero;"/>
<path d="M2064.83,624.595c37.271,-57.454 212.237,115.496 216.666,87.5c-123.891,-297.463 -289.55,-268.409 -404.166,-266.667c-40.121,-133.608 305.208,-270.067 304.166,-275c-1125.72,-289.371 -1847.51,260.675 -1762.5,670.833c-248.55,-163.754 -497.054,756.509 -395.833,508.334c86.838,-161.054 160.883,-228.696 205.646,-249.684c3.854,-5.7 7.546,-7.466 11.021,-4.483c-3.438,1.15 -7.129,2.658 -11.021,4.483c-42.958,63.609 -105.646,620.517 -105.646,620.517c0,0 107.279,-258 139.446,-339.121c2.208,-8.396 8.512,-21.471 -0,0c-25.846,98.175 -60.308,452.746 -18.613,489.121c0.863,4.425 90.755,-179.279 95.834,-279.167c-0.846,-1.854 70.833,41.667 70.833,41.667l158.333,791.667l-33.333,-358.334l83.333,333.334l-4.166,-229.167l87.5,291.667l-29.167,-758.334c126.496,-321.875 -85.758,-435.808 -58.333,-591.666c486.166,-403.221 1409.77,-339.404 1675,-79.167c11.65,-183.667 -278.434,-236.554 -275,-241.667c99.283,-53.483 309.262,64.146 304.166,66.667c75.538,-61.554 -249.562,-227.687 -254.166,-233.333" style="fill:#ff0;fill-rule:nonzero;"/>
<path d="M1337.44,2552.18c-321.829,0.013 -478.767,-216.558 -617.508,-407.987c-24.592,-33.925 -48.017,-66.246 -72.004,-97.092c-20.542,65.542 -50.83,94.838 -90.271,87.121c-65.396,-12.812 -123.917,-127.575 -146.042,-176.321c-42.012,-92.558 -65.421,-190.212 -58.254,-243.004c8.592,-51.417 35.558,-138.767 120.146,-149.654c69.558,-8.954 144.937,39.308 180.129,93.729c74.45,-194.737 18.192,-331.237 -23.267,-431.792c-24.25,-58.825 -43.404,-105.291 -31.258,-146.837l0.675,-2.3l1.612,-1.779c125.721,-138.459 320.6,-231.288 563.567,-268.446c233.596,-35.721 500.704,-19.05 772.45,48.229l6.396,1.588l1.308,6.458c15.317,75.604 15.684,125.279 16.034,173.317c0.808,110.529 1.575,214.929 198.2,628.887l0.579,1.504c2.491,8.375 5.033,16.813 7.596,25.317c27.687,91.787 59.062,195.821 43.95,310.5c-17.284,131.137 -92.78,256.471 -230.8,383.158l-1.317,1.204l-1.642,0.705c-299.579,127.783 -442.696,143.441 -623.891,163.27l-0.909,0.059c-5.196,0.112 -10.375,0.166 -15.479,0.166Z" id="face" style="fill:url(#_Linear15);fill-rule:nonzero;"/>
<path d="M1337.44,2552.18c-321.829,0.013 -478.767,-216.558 -617.508,-407.987c-24.592,-33.925 -48.017,-66.246 -72.004,-97.092c-20.542,65.542 -50.83,94.838 -90.271,87.121c-65.396,-12.812 -123.917,-127.575 -146.042,-176.321c-42.012,-92.558 -65.421,-190.212 -58.254,-243.004c8.592,-51.417 35.558,-138.767 120.146,-149.654c69.558,-8.954 144.937,39.308 180.129,93.729c74.45,-194.737 18.192,-331.237 -23.267,-431.792c-24.25,-58.825 -43.404,-105.291 -31.258,-146.837l0.675,-2.3l1.612,-1.779c125.721,-138.459 320.6,-231.288 563.567,-268.446c233.596,-35.721 500.704,-19.05 772.45,48.229l6.396,1.588l1.308,6.458c15.317,75.604 15.684,125.279 16.034,173.317c0.808,110.529 1.575,214.929 198.2,628.887l0.579,1.504c2.491,8.375 5.033,16.813 7.596,25.317c27.687,91.787 59.062,195.821 43.95,310.5c-17.284,131.137 -92.78,256.471 -230.8,383.158l-1.317,1.204l-1.642,0.705c-299.579,127.783 -442.696,143.441 -623.891,163.27l-0.909,0.059c-5.196,0.112 -10.375,0.166 -15.479,0.166Z" style="fill:url(#_Linear16);fill-rule:nonzero;"/>
<path d="M552.339,2132.95c1.767,0.496 3.541,0.92 5.32,1.268c39.441,7.717 69.729,-21.579 90.271,-87.121c13.579,17.462 26.978,35.397 40.513,53.831l13.891,361.167l-87.5,-291.667l4.166,229.167l-66.661,-266.645Zm-47.691,-30.116c11.764,11.321 24.126,20.483 36.856,26.169l27.496,295.592l-64.352,-321.761Zm1003.1,-2012.15c2.669,-0.085 144.603,-2.478 231.539,5.302c61.782,4.677 125.296,12.008 190.455,22.221c105.304,15.042 249.73,51.696 251.756,52.217c0.154,0.725 -7.178,4.293 -19.662,10.271c-49.438,25.896 -165.483,79.538 -239.267,150.297c-31.213,29.934 -54.307,76.802 -44.821,114.425c49.267,2.532 202.893,-37.735 328.657,129.17c35.7,47.378 67.676,115.205 74.218,135.464c0.288,0.89 0.842,1.662 0.807,2.307c-0.111,2.048 -2.066,2.9 -3.485,2.9c-25.965,-0 -174.819,-141.923 -213.113,-90.667c4.603,5.644 329.509,171.679 254.233,233.279l-0.014,0.016l-0,0.001l-0.002,0.001l-0.004,0.004l-0.009,0.008l-0.006,0.004l-0.003,0.003l-0.014,0.01l-0.011,0.005l-0.004,0.002l0.001,-0.001l-0.002,0.001l0.067,-0.054l0.011,-0.019l0.007,-0.018l0.001,-0.003c1.035,-3.67 -135.829,-80.497 -239.898,-80.497c-15.102,-0 -32.709,2.372 -46.801,6.535c-6.151,1.963 -12.023,4.411 -17.552,7.389c-0.061,0.051 1.5,1.079 1.686,1.132c88.392,24.747 278.42,83.599 273.314,240.535c-87.087,-76.941 -189.227,-119.418 -276.785,-145.895l-0.04,-0.012c-2.773,-0.839 -74.355,-19.99 -78.256,-20.904c-189.569,-46.919 -435.979,-65.739 -674.879,-69.779c-32.178,2.901 -63.839,6.725 -94.907,11.476c-242.967,37.158 -437.846,129.987 -563.567,268.446l-1.612,1.779l-0.675,2.3c-12.146,41.546 7.008,88.012 31.258,146.837c41.459,100.555 97.717,237.055 23.267,431.792c-35.192,-54.421 -110.571,-102.683 -180.129,-93.729c-39.706,5.11 -66.715,27.069 -85.088,54.251c-20.966,-12.614 -49.119,-29.395 -48.587,-28.229c-5.079,99.888 -94.971,283.592 -95.834,279.167c-41.695,-36.375 -7.233,-390.946 18.613,-489.121c8.512,-21.471 2.208,-8.396 -0,0c-32.167,81.121 -139.446,339.121 -139.446,339.121c0,0 62.688,-556.908 105.646,-620.517c3.892,-1.825 11.021,-4.483 11.021,-4.483c-0,0 -7.167,-1.217 -11.021,4.483c-44.763,20.988 -118.808,88.63 -205.646,249.684c-101.221,248.175 147.283,-672.088 395.833,-508.334l-0.188,-0.915l-0.001,0.001l0.188,0.913c-0.421,-0.277 -0.48,-0.582 -0.188,-0.913c-65.524,-320.646 361.438,-726.329 1088.79,-749.654l0.08,-0.002l0.073,-0.003Z" style="fill:url(#_Linear17);fill-rule:nonzero;"/>
<path d="M1940.39,1665.03c-45.304,-0.775 -96.003,11.62 -143.324,45.324c1.454,2.254 2.933,4.487 4.425,6.687c46.196,-32.579 95.582,-44.644 139.732,-43.886c53.296,0.913 100.882,18.323 127.92,30.536c0.121,-0.367 2.162,-6.742 2.325,-7.279c-27.433,-12.442 -76.278,-30.444 -131.078,-31.382" style="fill-rule:nonzero;"/>
<path d="M1451.12,1656.56c-45.842,-0.783 -96.621,9.988 -144.463,44.938c0.175,0.266 3.579,5.3 4.5,6.587c46.625,-33.683 96.025,-44.079 140.692,-43.316c46.075,0.791 87.092,13.475 114.704,24.758c1.104,-2.296 2.188,-4.625 3.242,-6.979c-28.125,-11.679 -70.692,-25.167 -118.675,-25.988" style="fill-rule:nonzero;"/>
<path d="M1189.21,1307.78c-51.312,21.646 -426.295,181.625 -541.52,281.771c-9,7.787 -12.1,26.108 -12.238,46.404l25.983,42.533c6.063,-16.633 11.23,-36.179 9.971,-51.787c14.617,-16.896 488.063,-225.984 542.225,-249.867c-7.883,-19.583 -17.866,-25.771 -17.866,-25.771l-6.555,-43.283" style="fill:#231f20;fill-rule:nonzero;"/>
<path d="M1594.19,1339.89c27.176,43.135 101.889,42.237 122.084,2.639c10.492,-20.571 39.69,-52.955 97.185,-52.955c212.481,0 309.959,44.982 309.959,44.982c0,-0 0.246,25.736 -0.761,47.932c-18.415,22.073 -17.4,47.721 -16.448,67.543c0.81,16.859 12.355,174.189 5.93,228.115c-7.449,62.515 -34.954,103.66 -45.214,115.223c-10.259,11.563 -36.286,38.163 -65.957,39.135c-37.997,1.244 -127.89,-7.379 -143.126,-12.793c-15.235,-5.414 -47.467,-40.249 -87.415,-102.797c-43.037,-67.384 -66.312,-160.326 -72.615,-273.675c-0.508,-9.128 0.597,-19.15 -6.49,-27.654c-12.859,-15.43 -34.604,-20.624 -49.737,-13.021c-15.133,7.603 -12.932,25.913 -12.932,25.913c3.257,14.648 7.431,67.208 7.426,113.167c-0.011,95.653 -38.549,199.283 -71.835,236.471c-10.262,11.464 -23.602,35.355 -51.027,36.786c-19.424,1.013 -98.951,4.577 -124.971,-0.791c-24.314,-5.017 -76.892,-23.035 -113.7,-101.339c-38.005,-80.853 -38.502,-134.142 -44.264,-197.423c-3.469,-38.098 -8.442,-78.512 -8.084,-84.47c1.981,-33.005 -8.22,-62.933 -26.7,-80.638c-1.615,-12.583 -5.97,-32.604 -7.342,-46.844c22.859,-10.405 83.287,-21.645 124.952,-23.057c46.504,-1.577 82.465,-11.17 197.662,4.031c25.94,3.423 69.473,33.382 83.42,55.52Zm136.75,185.285c-6.364,-61.12 -18.617,-103.07 8.441,-149.625c10.448,-17.975 31.801,-42.201 62.851,-47.218c42.553,-6.875 105.832,-5.966 183.945,11.507c43.466,9.724 71.75,69.752 78.934,90.436c14.233,40.976 9.429,83.847 12.503,122.963c3.694,47.004 12.495,150.843 -39.978,205.43c-6.146,6.394 -16.156,16.985 -40.547,27.694c-12.242,5.375 -73.015,2.166 -125.568,-5.449c-28.32,-4.103 -73.507,-67.189 -86.01,-92.701c-35.281,-71.987 -49.129,-110.769 -54.571,-163.037Zm-477.546,-130.698c3.852,-16.214 8.659,-34.567 23.319,-51.209c13.743,-15.601 15.341,-31.832 51.253,-32.999c40.082,-1.304 105.473,-10.18 183.586,7.294c33.443,7.481 65.312,48.208 72.496,68.892c7.185,20.683 20.661,104.888 17.959,142.791c-4.569,64.086 -4.416,117.991 -66.608,210.431c-6.807,10.118 -8.924,17.032 -36.492,25.474c-15.971,4.89 -96.417,0.72 -107.174,-0.029c-8.308,-0.578 -64.075,-18.46 -95.8,-83.191c-35.281,-71.988 -34.334,-110.427 -39.776,-162.695c-6.363,-61.12 -10.783,-91.003 -2.763,-124.759Z" style="fill:#231f20;"/>
<path d="M1697.95,1946.28l1.546,-3.871c48.146,19.204 94.425,17.908 123.783,-3.459c26.029,-18.941 38.154,-53.375 35.054,-99.583c-2.337,-34.908 -33.191,-53.096 -61.291,-58.475c-37.925,-7.262 -88.613,5.667 -110.35,51.196l-3.759,-1.792c22.688,-47.533 75.463,-61.05 114.892,-53.5c37.8,7.242 62.575,31.109 64.667,62.296c3.196,47.704 -9.364,83.612 -36.759,103.225c-28.531,20.428 -73.533,25.45 -127.783,3.963Z" id="Nose" style="fill-rule:nonzero;"/>
<path d="M1283.74,2143.4c0,135.142 109.718,244.86 244.86,244.86c135.143,0 244.861,-109.718 244.861,-244.86c-0,-135.142 -109.718,-244.86 -244.861,-244.86c-135.142,-0 -244.86,109.718 -244.86,244.86Z" id="cheek" style="fill:url(#_Radial18);"/>
<g style="filter:url(#_Effect19);">
<path d="M1707.13,2347.92l-2.408,-3.396c52.237,-37.054 86.175,-84.683 98.133,-137.733c13.129,-58.221 0.367,-120.867 -37.941,-186.196l3.595,-2.109c38.859,66.271 51.78,129.934 38.409,189.221c-12.192,54.071 -46.696,102.554 -99.788,140.213" style="fill-rule:nonzero;"/>
</g>
<path d="M1524.27,2503.41c-76.46,-61.249 -225.842,-144.716 -302.395,-147.786c-30.764,-1.233 -57.464,-9.059 -66.356,18.397c-29.619,91.452 -32.575,278.838 -12.162,372.775c10.639,48.957 38.51,48.82 61.028,52.911c22.517,4.091 74.842,7.144 122.669,-14.076c78.011,-34.613 173.259,-105.168 212.191,-153.078c53.822,-66.235 50.513,-76.682 -14.975,-129.143Z" id="bow" style="fill:#ec1c24;"/>
<clipPath id="_clip20">
<path d="M1524.27,2503.41c-76.46,-61.249 -225.842,-144.716 -302.395,-147.786c-30.764,-1.233 -57.464,-9.059 -66.356,18.397c-29.619,91.452 -32.575,278.838 -12.162,372.775c10.639,48.957 38.51,48.82 61.028,52.911c22.517,4.091 74.842,7.144 122.669,-14.076c78.011,-34.613 173.259,-105.168 212.191,-153.078c53.822,-66.235 50.513,-76.682 -14.975,-129.143Z"/>
</clipPath>
<g clip-path="url(#_clip20)">
<g id="shadow">
<path d="M1539.15,2470.69l-0,215.754c-13.855,0 -25.188,-24.275 -25.188,-53.942l0,-107.875c0,-29.666 11.333,-53.937 25.188,-53.937" style="fill:#ec1c24;fill-rule:nonzero;"/>
<path d="M1539.15,2470.69l-0,215.754c-13.855,0 -25.188,-24.275 -25.188,-53.942l0,-107.875c0,-29.666 11.333,-53.937 25.188,-53.937" style="fill:#ec1c24;fill-rule:nonzero;"/>
</g>
</g>
<path d="M1524.27,2503.41c-76.46,-61.249 -225.842,-144.716 -302.395,-147.786c-30.764,-1.233 -57.464,-9.059 -66.356,18.397c-29.619,91.452 -32.575,278.838 -12.162,372.775c10.639,48.957 38.51,48.82 61.028,52.911c22.517,4.091 74.842,7.144 122.669,-14.076c78.011,-34.613 173.259,-105.168 212.191,-153.078c53.822,-66.235 50.513,-76.682 -14.975,-129.143Z" style="fill:#ec1c24;"/>
<clipPath id="_clip21">
<path d="M1524.27,2503.41c-76.46,-61.249 -225.842,-144.716 -302.395,-147.786c-30.764,-1.233 -57.464,-9.059 -66.356,18.397c-29.619,91.452 -32.575,278.838 -12.162,372.775c10.639,48.957 38.51,48.82 61.028,52.911c22.517,4.091 74.842,7.144 122.669,-14.076c78.011,-34.613 173.259,-105.168 212.191,-153.078c53.822,-66.235 50.513,-76.682 -14.975,-129.143Z"/>
</clipPath>
<g clip-path="url(#_clip21)">
<g id="shadow1" serif:id="shadow">
<path d="M1539.15,2470.69l-0,215.754c-13.855,0 -25.188,-24.275 -25.188,-53.942l0,-107.875c0,-29.666 11.333,-53.937 25.188,-53.937" style="fill:#ec1c24;fill-rule:nonzero;"/>
<path d="M1539.15,2470.69l-0,215.754c-13.855,0 -25.188,-24.275 -25.188,-53.942l0,-107.875c0,-29.666 11.333,-53.937 25.188,-53.937" style="fill:#ec1c24;fill-rule:nonzero;"/>
</g>
</g>
<path d="M1597.43,2525.24c48.628,-56.145 123.187,-127.271 182.449,-134.255c24.402,-2.876 28.728,-3.037 34.234,15.583c5.505,18.62 6.839,41.486 7.72,49.229c8.103,71.233 6.583,146.534 0.124,217.611c-0.371,4.077 -2.711,31.399 -11.468,41.383c-6.641,7.571 -24.766,12.343 -32.777,13.798c-10.23,1.859 -33.997,2.832 -76.875,-24.157c-41.349,-26.027 -90.877,-87.075 -113.164,-114.502c-30.811,-37.917 -21.691,-28.379 9.757,-64.69Z" id="bow1" serif:id="bow" style="fill:#ec1c24;"/>
<clipPath id="_clip22">
<path d="M1597.43,2525.24c48.628,-56.145 123.187,-127.271 182.449,-134.255c24.402,-2.876 28.728,-3.037 34.234,15.583c5.505,18.62 6.839,41.486 7.72,49.229c8.103,71.233 6.583,146.534 0.124,217.611c-0.371,4.077 -2.711,31.399 -11.468,41.383c-6.641,7.571 -24.766,12.343 -32.777,13.798c-10.23,1.859 -33.997,2.832 -76.875,-24.157c-41.349,-26.027 -90.877,-87.075 -113.164,-114.502c-30.811,-37.917 -21.691,-28.379 9.757,-64.69Z"/>
</clipPath>
<g clip-path="url(#_clip22)">
<g id="shadow2" serif:id="shadow">
<path d="M1590.95,2468.49l0,219.91c13.735,-0 24.97,-24.743 24.97,-54.981l0,-109.953c0,-30.238 -11.235,-54.976 -24.97,-54.976" style="fill:#ec1c24;fill-rule:nonzero;"/>
<path d="M1590.95,2468.49l0,219.91c13.735,-0 24.97,-24.743 24.97,-54.981l0,-109.953c0,-30.238 -11.235,-54.976 -24.97,-54.976" style="fill:#ec1c24;fill-rule:nonzero;"/>
</g>
</g>
<path d="M1597.43,2525.24c48.628,-56.145 123.187,-127.271 182.449,-134.255c24.402,-2.876 28.728,-3.037 34.234,15.583c5.505,18.62 6.839,41.486 7.72,49.229c8.103,71.233 6.583,146.534 0.124,217.611c-0.371,4.077 -2.711,31.399 -11.468,41.383c-6.641,7.571 -24.766,12.343 -32.777,13.798c-10.23,1.859 -33.997,2.832 -76.875,-24.157c-41.349,-26.027 -90.877,-87.075 -113.164,-114.502c-30.811,-37.917 -21.691,-28.379 9.757,-64.69Z" style="fill:#ec1c24;"/>
<clipPath id="_clip23">
<path d="M1597.43,2525.24c48.628,-56.145 123.187,-127.271 182.449,-134.255c24.402,-2.876 28.728,-3.037 34.234,15.583c5.505,18.62 6.839,41.486 7.72,49.229c8.103,71.233 6.583,146.534 0.124,217.611c-0.371,4.077 -2.711,31.399 -11.468,41.383c-6.641,7.571 -24.766,12.343 -32.777,13.798c-10.23,1.859 -33.997,2.832 -76.875,-24.157c-41.349,-26.027 -90.877,-87.075 -113.164,-114.502c-30.811,-37.917 -21.691,-28.379 9.757,-64.69Z"/>
</clipPath>
<g clip-path="url(#_clip23)">
<g id="shadow3" serif:id="shadow">
<path d="M1590.95,2468.49l0,219.91c13.735,-0 24.97,-24.743 24.97,-54.981l0,-109.953c0,-30.238 -11.235,-54.976 -24.97,-54.976" style="fill:#ec1c24;fill-rule:nonzero;"/>
<path d="M1590.95,2468.49l0,219.91c13.735,-0 24.97,-24.743 24.97,-54.981l0,-109.953c0,-30.238 -11.235,-54.976 -24.97,-54.976" style="fill:#ec1c24;fill-rule:nonzero;"/>
</g>
</g>
<path d="M1485.58,2561.61c-6.225,-0 -12.958,-0.734 -19.3,-1.98c-16.342,-3.216 -33.804,-10.783 -33.804,-22.391l4.167,-0c-0,8.504 15.291,15.321 30.445,18.3c18.596,3.658 35.709,1.816 38.134,-4.104l3.858,1.579c-2.529,6.166 -12.175,8.596 -23.5,8.596" id="bow2" serif:id="bow" style="fill:#b52026;fill-rule:nonzero;"/>
<clipPath id="_clip24">
<path clip-rule="nonzero" d="M1485.58,2561.61c-6.225,-0 -12.958,-0.734 -19.3,-1.98c-16.342,-3.216 -33.804,-10.783 -33.804,-22.391l4.167,-0c-0,8.504 15.291,15.321 30.445,18.3c18.596,3.658 35.709,1.816 38.134,-4.104l3.858,1.579c-2.529,6.166 -12.175,8.596 -23.5,8.596"/>
</clipPath>
<g clip-path="url(#_clip24)">
<g id="shadow4" serif:id="shadow">
<path d="M1539.15,2470.69l-0,215.754c-13.855,0 -25.188,-24.275 -25.188,-53.942l0,-107.875c0,-29.666 11.333,-53.937 25.188,-53.937" style="fill:#ec1c24;fill-rule:nonzero;"/>
<path d="M1539.15,2470.69l-0,215.754c-13.855,0 -25.188,-24.275 -25.188,-53.942l0,-107.875c0,-29.666 11.333,-53.937 25.188,-53.937" style="fill:#ec1c24;fill-rule:nonzero;"/>
</g>
</g>
<path d="M1647.72,2616c-6.496,-0 -14.466,-8.654 -22.187,-17.038c-3.734,-4.05 -8.838,-9.595 -10.459,-9.82c0.171,0.008 0.467,-0.075 0.65,-0.292l-3.15,-2.725c0.63,-0.725 1.509,-1.133 2.475,-1.146c0.021,-0.004 0.042,-0.004 0.059,-0.004c3.062,-0 6.746,3.842 13.487,11.162c6.034,6.55 15.188,16.446 19.596,15.659c0.367,-0.067 1.483,-0.263 2.475,-2.638l3.842,1.609c-1.242,2.97 -3.125,4.695 -5.596,5.133c-0.392,0.067 -0.788,0.1 -1.192,0.1" id="bow3" serif:id="bow" style="fill:#b52026;fill-rule:nonzero;"/>
<clipPath id="_clip25">
<path clip-rule="nonzero" d="M1647.72,2616c-6.496,-0 -14.466,-8.654 -22.187,-17.038c-3.734,-4.05 -8.838,-9.595 -10.459,-9.82c0.171,0.008 0.467,-0.075 0.65,-0.292l-3.15,-2.725c0.63,-0.725 1.509,-1.133 2.475,-1.146c0.021,-0.004 0.042,-0.004 0.059,-0.004c3.062,-0 6.746,3.842 13.487,11.162c6.034,6.55 15.188,16.446 19.596,15.659c0.367,-0.067 1.483,-0.263 2.475,-2.638l3.842,1.609c-1.242,2.97 -3.125,4.695 -5.596,5.133c-0.392,0.067 -0.788,0.1 -1.192,0.1"/>
</clipPath>
<g clip-path="url(#_clip25)">
<g id="shadow5" serif:id="shadow">
<path d="M1590.95,2468.49l0,219.91c13.735,-0 24.97,-24.743 24.97,-54.981l0,-109.953c0,-30.238 -11.235,-54.976 -24.97,-54.976" style="fill:#ec1c24;fill-rule:nonzero;"/>
<path d="M1590.95,2468.49l0,219.91c13.735,-0 24.97,-24.743 24.97,-54.981l0,-109.953c0,-30.238 -11.235,-54.976 -24.97,-54.976" style="fill:#ec1c24;fill-rule:nonzero;"/>
</g>
</g>
<path d="M1641.45,2551.92c-12.75,0 -23.925,-2.146 -28.446,-5.146l2.304,-3.47c7.154,4.75 40.817,8.108 61.975,-2.75c10.721,-5.496 16.354,-13.696 16.746,-24.367l4.166,0.154c-0.445,12.117 -7.016,21.771 -19.012,27.925c-10.779,5.525 -25.038,7.654 -37.733,7.654" id="bow4" serif:id="bow" style="fill:#b52026;fill-rule:nonzero;"/>
<clipPath id="_clip26">
<path clip-rule="nonzero" d="M1641.45,2551.92c-12.75,0 -23.925,-2.146 -28.446,-5.146l2.304,-3.47c7.154,4.75 40.817,8.108 61.975,-2.75c10.721,-5.496 16.354,-13.696 16.746,-24.367l4.166,0.154c-0.445,12.117 -7.016,21.771 -19.012,27.925c-10.779,5.525 -25.038,7.654 -37.733,7.654"/>
</clipPath>
<g clip-path="url(#_clip26)">
<g id="shadow6" serif:id="shadow">
<path d="M1590.95,2468.49l0,219.91c13.735,-0 24.97,-24.743 24.97,-54.981l0,-109.953c0,-30.238 -11.235,-54.976 -24.97,-54.976" style="fill:#ec1c24;fill-rule:nonzero;"/>
<path d="M1590.95,2468.49l0,219.91c13.735,-0 24.97,-24.743 24.97,-54.981l0,-109.953c0,-30.238 -11.235,-54.976 -24.97,-54.976" style="fill:#ec1c24;fill-rule:nonzero;"/>
</g>
</g>
<path d="M1488.77,2627.79c-1.441,-0 -2.975,-0.104 -4.604,-0.338l0.583,-4.125c15.755,2.23 27.172,-8.73 27.214,-8.843l0.092,4.223c-0.054,0.133 -7.947,9.083 -23.285,9.083" id="bow5" serif:id="bow" style="fill:#b52026;fill-rule:nonzero;"/>
<clipPath id="_clip27">
<path clip-rule="nonzero" d="M1488.77,2627.79c-1.441,-0 -2.975,-0.104 -4.604,-0.338l0.583,-4.125c15.755,2.23 27.172,-8.73 27.214,-8.843l0.092,4.223c-0.054,0.133 -7.947,9.083 -23.285,9.083"/>
</clipPath>
<g clip-path="url(#_clip27)">
<g id="shadow7" serif:id="shadow">
<path d="M1539.15,2470.69l-0,215.754c-13.855,0 -25.188,-24.275 -25.188,-53.942l0,-107.875c0,-29.666 11.333,-53.937 25.188,-53.937" style="fill:#ec1c24;fill-rule:nonzero;"/>
<path d="M1539.15,2470.69l-0,215.754c-13.855,0 -25.188,-24.275 -25.188,-53.942l0,-107.875c0,-29.666 11.333,-53.937 25.188,-53.937" style="fill:#ec1c24;fill-rule:nonzero;"/>
</g>
</g>
<path d="M1539.14,2472.78c-12.521,-0 -23.1,23.746 -23.1,51.854l-0,107.875c-0,28.108 10.579,51.854 23.1,51.854l50.371,0c8.258,0 16.233,-10.829 20.316,-27.587c1.846,-7.596 2.788,-15.759 2.788,-24.267l-0,-107.875c-0,-8.004 -0.846,-15.763 -2.521,-23.067c-4,-17.487 -12.075,-28.787 -20.583,-28.787l-50.371,-0Zm50.371,215.75l-50.371,-0c-15.292,-0 -27.267,-24.604 -27.267,-56.021l0,-107.875c0,-31.413 11.975,-56.021 27.267,-56.021l50.371,0c10.683,0 20.129,12.271 24.645,32.029c1.742,7.604 2.625,15.679 2.625,23.992l0,107.875c0,8.842 -0.979,17.333 -2.908,25.25c-4.621,18.979 -13.954,30.771 -24.362,30.771" id="bow6" serif:id="bow" style="fill:#b52026;fill-rule:nonzero;"/>
<path d="M1539.15,2470.69l50.37,-0c9.913,-0 18.513,12.462 22.613,30.408c1.633,7.129 2.575,15.096 2.575,23.529l-0,107.875c-0,8.917 -1.042,17.33 -2.85,24.759c-4.208,17.287 -12.65,29.183 -22.338,29.183l-50.37,0c-13.855,0 -25.188,-24.275 -25.188,-53.942l0,-107.875c0,-29.666 11.333,-53.937 25.188,-53.937" id="bow7" serif:id="bow" style="fill:#ec1c24;fill-rule:nonzero;"/>
<path d="M1539.15,2470.69l50.37,-0c9.913,-0 18.513,12.462 22.613,30.408c1.633,7.129 2.575,15.096 2.575,23.529l-0,107.875c-0,8.917 -1.042,17.33 -2.85,24.759c-4.208,17.287 -12.65,29.183 -22.338,29.183l-50.37,0c-13.855,0 -25.188,-24.275 -25.188,-53.942l0,-107.875c0,-29.666 11.333,-53.937 25.188,-53.937" style="fill:#ec1c24;fill-rule:nonzero;"/>
<path d="M2393.85,2244.65l-27.796,-10.692c-25.527,-9.821 -44.661,-45.54 -51.701,-60.443c-2.302,-4.863 -1.998,-10.56 0.799,-15.239c0.927,-2.014 1.171,-11.231 -2.353,-26.989c-0.935,-4.187 53.443,9.082 53.443,9.082c-21.32,17.605 13.019,116.008 27.608,104.281Z" id="finger" style="fill:#fdc689;fill-rule:nonzero;"/>
<path d="M2393.85,2244.65l-27.796,-10.692c-25.527,-9.821 -44.661,-45.54 -51.701,-60.443c-2.302,-4.863 -1.998,-10.56 0.799,-15.239c0.927,-2.014 1.171,-11.231 -2.353,-26.989c-0.935,-4.187 53.443,9.082 53.443,9.082c-21.32,17.605 13.019,116.008 27.608,104.281Z" style="fill:#fdc689;fill-rule:nonzero;"/>
<path d="M1868.33,1989.73c-18.947,0 -32.471,20.478 -24.23,31.334c18.519,24.393 66.125,215.692 60.367,240.787c-1.481,6.454 10.554,16.233 19.863,12.846c14.712,-5.35 31.312,-14.992 32.408,-31.396c0.287,-4.308 3.725,-7.617 8.037,-7.3c127.55,9.479 178.492,-84.996 178.492,-84.996l227.546,-8.537l-0.075,-99.204c-152.771,9.233 -241.104,14.558 -241.104,14.558c-0,-0 -43.017,-80.017 -207.329,-43.204c-4.625,1.033 -9.463,-0.788 -12.159,-4.679c-10.841,-15.659 -26.871,-20.209 -41.816,-20.209Z" id="mouthpiece" style="fill:url(#_Radial28);fill-rule:nonzero;"/>
<path d="M1868.33,1989.73c-18.947,0 -32.471,20.478 -24.23,31.334c18.519,24.393 66.125,215.692 60.367,240.787c-1.481,6.454 10.554,16.233 19.863,12.846c14.712,-5.35 31.312,-14.992 32.408,-31.396c0.287,-4.308 3.725,-7.617 8.037,-7.3c127.55,9.479 178.492,-84.996 178.492,-84.996l227.546,-8.537l-0.075,-99.204c-152.771,9.233 -241.104,14.558 -241.104,14.558c-0,-0 -43.017,-80.017 -207.329,-43.204c-4.625,1.033 -9.463,-0.788 -12.159,-4.679c-10.841,-15.659 -26.871,-20.209 -41.816,-20.209Z" style="fill:url(#_Radial29);fill-rule:nonzero;"/>
<path d="M2612.81,2374.75l60.263,-146.442c-0,0 61.183,-105.862 -33.996,-221.437c-23.55,-31.079 -44.675,-7.042 -54.146,-9.713c-51.108,-34.358 -59,-6.404 -70.654,-6.8c-65.234,-39.171 -68.288,0.717 -80.125,-0.971c-136.296,-19.425 -55.988,119.988 -81.584,155.396c-6.925,9.584 -0.483,67.5 16.025,84.496c23.509,24.2 70.671,42.933 88.663,51.754c7.308,3.588 20.137,34.534 20.137,42.675l135.417,51.042Z" id="hand1" serif:id="hand" style="fill:#fdc689;fill-rule:nonzero;"/>
<clipPath id="_clip30">
<path clip-rule="nonzero" d="M2612.81,2374.75l60.263,-146.442c-0,0 61.183,-105.862 -33.996,-221.437c-23.55,-31.079 -44.675,-7.042 -54.146,-9.713c-51.108,-34.358 -59,-6.404 -70.654,-6.8c-65.234,-39.171 -68.288,0.717 -80.125,-0.971c-136.296,-19.425 -55.988,119.988 -81.584,155.396c-6.925,9.584 -0.483,67.5 16.025,84.496c23.509,24.2 70.671,42.933 88.663,51.754c7.308,3.588 20.137,34.534 20.137,42.675l135.417,51.042Z"/>
</clipPath>
<g clip-path="url(#_clip30)">
<g id="shadow8" serif:id="shadow">
<path d="M2335.85,2528.04c11.527,80.859 375.25,3.843 290.146,-161.843c-5.156,-10.037 -118.242,-24.15 -151.034,-66.02c-31.037,-39.634 -144.579,189.511 -139.112,227.863Z" style="fill:#fcfdff;fill-rule:nonzero;"/>
<path d="M2335.85,2528.04c11.527,80.859 375.25,3.843 290.146,-161.843c-5.156,-10.037 -118.242,-24.15 -151.034,-66.02c-31.037,-39.634 -144.579,189.511 -139.112,227.863Z" style="fill:#fcfdff;fill-rule:nonzero;"/>
</g>
</g>
<path d="M1128.09,2536.87c-3.763,-3.733 -8.017,-6.9 -12.805,-9.179c-34.958,-16.662 -127.075,-34.291 -199.166,4.346c-59.121,31.688 -140.342,268.613 -104.8,402.108c71.241,267.592 1331.08,210.35 1434.51,192.155c127.779,-97.93 369.217,-728.7 380.167,-760.105c3.716,-10.654 -118.242,-24.15 -151.034,-66.02c-31.037,-39.634 -353.404,494.133 -388.375,510.8c-34.537,16.462 -849.491,-165.917 -958.495,-274.105" id="arm" style="fill:#fcfdff;fill-rule:nonzero;"/>
<path d="M1128.09,2536.87c-3.763,-3.733 -8.017,-6.9 -12.805,-9.179c-34.958,-16.662 -127.075,-34.291 -199.166,4.346c-59.121,31.688 -140.342,268.613 -104.8,402.108c71.241,267.592 1331.08,210.35 1434.51,192.155c127.779,-97.93 369.217,-728.7 380.167,-760.105c3.716,-10.654 -118.242,-24.15 -151.034,-66.02c-31.037,-39.634 -353.404,494.133 -388.375,510.8c-34.537,16.462 -849.491,-165.917 -958.495,-274.105" style="fill:#fcfdff;fill-rule:nonzero;"/>
</g>
</g>
<defs>
<radialGradient cx="0" cy="0" gradientTransform="matrix(164.056,-49.5741,49.5741,164.056,3630.94,1692.31)" gradientUnits="userSpaceOnUse" id="_Radial1" r="1">
<stop offset="0" style="stop-color:#ffffda;stop-opacity:1"/>
<stop offset="0.3" style="stop-color:#ffffda;stop-opacity:1"/>
<stop offset="1" style="stop-color:#c0c0c0;stop-opacity:1"/>
</radialGradient>
<radialGradient cx="0" cy="0" gradientTransform="matrix(164.056,-49.5741,49.5741,164.056,3630.94,1692.31)" gradientUnits="userSpaceOnUse" id="_Radial2" r="1">
<stop offset="0" style="stop-color:#ffffda;stop-opacity:1"/>
<stop offset="0.3" style="stop-color:#ffffda;stop-opacity:1"/>
<stop offset="1" style="stop-color:#c0c0c0;stop-opacity:1"/>
</radialGradient>
<linearGradient gradientTransform="matrix(92.6535,-851.05,851.05,92.6535,1459.87,3523.24)" gradientUnits="userSpaceOnUse" id="_Linear7" x1="0" x2="1" y1="0" y2="0">
<stop offset="0" style="stop-color:#666;stop-opacity:1"/>
<stop offset="1" style="stop-color:#585858;stop-opacity:1"/>
</linearGradient>
<radialGradient cx="0" cy="0" gradientTransform="matrix(169.032,-7.20068,20.2736,475.91,1655.93,3160.33)" gradientUnits="userSpaceOnUse" id="_Radial8" r="1">
<stop offset="0" style="stop-color:#bea365;stop-opacity:1"/>
<stop offset="1" style="stop-color:#b78c2d;stop-opacity:1"/>
</radialGradient>
<radialGradient cx="0" cy="0" gradientTransform="matrix(230.87,-75.7707,75.8383,231.075,2404.84,1274.28)" gradientUnits="userSpaceOnUse" id="_Radial9" r="1">
<stop offset="0" style="stop-color:#ffffda;stop-opacity:1"/>
<stop offset="0.3" style="stop-color:#ffffda;stop-opacity:1"/>
<stop offset="1" style="stop-color:#c0c0c0;stop-opacity:1"/>
</radialGradient>
<radialGradient cx="0" cy="0" gradientTransform="matrix(230.87,-75.7707,75.8383,231.075,2404.84,1274.28)" gradientUnits="userSpaceOnUse" id="_Radial10" r="1">
<stop offset="0" style="stop-color:#ffffda;stop-opacity:1"/>
<stop offset="0.3" style="stop-color:#ffffda;stop-opacity:1"/>
<stop offset="1" style="stop-color:#c0c0c0;stop-opacity:1"/>
</radialGradient>
<radialGradient cx="0" cy="0" gradientTransform="matrix(177.605,-41.5915,41.5915,177.605,2809.15,1760.51)" gradientUnits="userSpaceOnUse" id="_Radial11" r="1">
<stop offset="0" style="stop-color:#ffffda;stop-opacity:1"/>
<stop offset="0.3" style="stop-color:#ffffda;stop-opacity:1"/>
<stop offset="1" style="stop-color:#c0c0c0;stop-opacity:1"/>
</radialGradient>
<radialGradient cx="0" cy="0" gradientTransform="matrix(177.605,-41.5915,41.5915,177.605,2809.15,1760.51)" gradientUnits="userSpaceOnUse" id="_Radial12" r="1">
<stop offset="0" style="stop-color:#ffffda;stop-opacity:1"/>
<stop offset="0.3" style="stop-color:#ffffda;stop-opacity:1"/>
<stop offset="1" style="stop-color:#c0c0c0;stop-opacity:1"/>
</radialGradient>
<radialGradient cx="0" cy="0" gradientTransform="matrix(2219.9,0,0,2219.9,4275.55,1071.94)" gradientUnits="userSpaceOnUse" id="_Radial13" r="1">
<stop offset="0" style="stop-color:#ffffda;stop-opacity:1"/>
<stop offset="0.3" style="stop-color:#ffffda;stop-opacity:1"/>
<stop offset="1" style="stop-color:#9d8d5c;stop-opacity:1"/>
</radialGradient>
<radialGradient cx="0" cy="0" gradientTransform="matrix(2219.9,0,0,2219.9,4275.55,1071.94)" gradientUnits="userSpaceOnUse" id="_Radial14" r="1">
<stop offset="0" style="stop-color:#ffffda;stop-opacity:1"/>
<stop offset="0.3" style="stop-color:#ffffda;stop-opacity:1"/>
<stop offset="1" style="stop-color:#9d8d5c;stop-opacity:1"/>
</radialGradient>
<linearGradient gradientTransform="matrix(-1642.66,767.547,-767.547,-1642.66,1574.86,1504.08)" gradientUnits="userSpaceOnUse" id="_Linear15" x1="0" x2="1" y1="0" y2="0">
<stop offset="0" style="stop-color:#fdc689;stop-opacity:1"/>
<stop offset="0.56" style="stop-color:#f6c085;stop-opacity:1"/>
<stop offset="1" style="stop-color:#dcaa73;stop-opacity:1"/>
</linearGradient>
<linearGradient gradientTransform="matrix(-1642.66,767.547,-767.547,-1642.66,1574.86,1504.08)" gradientUnits="userSpaceOnUse" id="_Linear16" x1="0" x2="1" y1="0" y2="0">
<stop offset="0" style="stop-color:#fdc689;stop-opacity:1"/>
<stop offset="0.56" style="stop-color:#f6c085;stop-opacity:1"/>
<stop offset="1" style="stop-color:#dcaa73;stop-opacity:1"/>
</linearGradient>
<linearGradient gradientTransform="matrix(-1286.41,856.619,-856.619,-1286.41,1452.46,503.974)" gradientUnits="userSpaceOnUse" id="_Linear17" x1="0" x2="1" y1="0" y2="0">
<stop offset="0" style="stop-color:#ff0;stop-opacity:0.51"/>
<stop offset="1" style="stop-color:#ecbc00;stop-opacity:0.51"/>
</linearGradient>
<radialGradient cx="0" cy="0" gradientTransform="matrix(-37.4609,-240.008,240.008,-37.4609,1528.6,2153.64)" gradientUnits="userSpaceOnUse" id="_Radial18" r="1">
<stop offset="0" style="stop-color:#ff302a;stop-opacity:0.55"/>
<stop offset="0.51" style="stop-color:#ff1f14;stop-opacity:0.26"/>
<stop offset="1" style="stop-color:#ff0e00;stop-opacity:0"/>
</radialGradient>
<filter filterUnits="userSpaceOnUse" height="356.121" id="_Effect19" width="133.989" x="1691.37" y="2005.14">
<feGaussianBlur in="SourceGraphic" stdDeviation="2.22397"/>
</filter>
<radialGradient cx="0" cy="0" gradientTransform="matrix(-102.556,-179.316,13.8161,-7.90179,1476.32,1840.59)" gradientUnits="userSpaceOnUse" id="_Radial28" r="1">
<stop offset="0" style="stop-color:#ffffda;stop-opacity:1"/>
<stop offset="1" style="stop-color:#c0c0c0;stop-opacity:1"/>
</radialGradient>
<radialGradient cx="0" cy="0" gradientTransform="matrix(-102.556,-179.316,13.8161,-7.90179,1476.32,1840.59)" gradientUnits="userSpaceOnUse" id="_Radial29" r="1">
<stop offset="0" style="stop-color:#ffffda;stop-opacity:1"/>
<stop offset="1" style="stop-color:#c0c0c0;stop-opacity:1"/>
</radialGradient>
</defs>
</svg>